<?xml version="1.0" standalone="no"?>
<!DOCTYPE svg PUBLIC "-//W3C//DTD SVG 1.1//EN" "http://www.w3.org/Graphics/SVG/1.1/DTD/svg11.dtd" >
<svg xmlns="http://www.w3.org/2000/svg">
<metadata>Generated by IcoMoon</metadata>
<defs>
<font id="coins" horiz-adv-x="1024">
<font-face units-per-em="1024" ascent="960" descent="-64" />
<missing-glyph horiz-adv-x="1024" />
<glyph unicode="&#x20;" horiz-adv-x="512" d="" />
<glyph unicode="&#xe900;" glyph-name="ADC-alt" d="M614.49 459.287l-144.48 83.527c-12.642 7.224-27.993-1.806-27.993-16.254v-167.055c0-14.448 15.802-23.478 27.993-16.254l144.48 83.527c12.642 7.224 12.642 25.284 0 32.508zM512 690.907c-133.644 0-242.907-108.811-242.907-242.907 0-133.644 108.811-242.907 242.907-242.907 133.644 0 242.907 108.811 242.907 242.907s-109.263 242.907-242.907 242.907zM512 233.538c-118.293 0-214.914 96.169-214.914 214.914 0 118.293 96.169 214.914 214.914 214.914 118.293 0 214.914-96.169 214.914-214.914-0.451-118.744-96.621-214.914-214.914-214.914zM512 960c-282.638 0-512-229.362-512-512s229.362-512 512-512 512 229.362 512 512c0 282.638-229.362 512-512 512zM512 123.372c-179.245 0-324.628 145.383-324.628 324.628s145.383 324.628 324.628 324.628 324.628-145.383 324.628-324.628-145.383-324.628-324.628-324.628z" />
<glyph unicode="&#xe901;" glyph-name="ADC" d="M512 786.624c-186.921 0-338.624-151.704-338.624-338.624s151.704-338.624 338.624-338.624 338.624 151.704 338.624 338.624-152.155 338.624-338.624 338.624zM674.088 414.589l-227.556-131.386c-19.866-11.287-44.247 2.709-44.247 25.735v262.772c0 22.575 24.381 37.023 44.247 25.735l227.556-131.386c19.414-11.739 19.414-40.183 0-51.471zM512 960c-282.638 0-512-229.362-512-512s229.362-512 512-512c282.638 0 512 229.362 512 512s-229.362 512-512 512zM512 65.129c-211.302 0-382.871 171.57-382.871 382.871s171.57 382.871 382.871 382.871 382.871-171.57 382.871-382.871c0-210.85-172.021-382.871-382.871-382.871z" />
<glyph unicode="&#xe902;" glyph-name="AEON-alt" d="M663.026 564.83c-45.249 8.584-95.953-9.88-123.516-40.052-11.185 25.485-46.026 43.425-92.833 39.786s-83.468-12.219-83.468-12.219l-9.622-55.391s35.103 18.987 69.168 19.254c34.060 0.257 67.352-1.829 61.889-36.927 0 0-43.159 1.562-81.386-3.639 0 0-75.151-6.245-87.636-63.708-12.476-57.464 19.764-84.24 64.752-83.992 44.983 0.266 78.668 12.228 104.862 41.605 26.194-40.305 69.1-38.747 101.34-39.262 32.24-0.519 75.67 11.18 75.67 11.18l10.918 56.172s-43.944-20.283-79.305-19.764c-35.365 0.51-55.386 5.193-51.747 37.442 0 0 52.009-0.519 80.352 3.378 0 0 70.725 8.584 85.283 54.348 14.567 45.764 0.524 83.206-44.721 91.79zM454.214 389.049c-13.253-13.262-41.732-19.502-58.696-6.046-16.969 13.456-6.633 40.373 13.65 47.394 20.279 7.017 66.314 4.475 66.314 4.475s-8.001-32.565-21.268-45.823zM605.747 460.817c-31.983-3.513-55.969-1.359-55.969-1.359s2.145 32.371 24.18 47.972c22.040 15.605 53.829 14.815 61.627-1.165 7.807-16.003 2.145-41.935-29.838-45.448zM512.002 960c-282.771 0-512.002-229.231-512.002-511.998 0-282.771 229.231-512.002 512.002-512.002 282.766 0 511.998 229.231 511.998 512.002 0 282.766-229.231 511.998-511.998 511.998zM828.391 687.163c16.807-22.040 22.948-50.465 19.723-82.8-83.441 43.728-215.369 63.257-360.084 46.324-5.572-0.655-11.108-1.373-16.617-2.118 151.949 91.126 302.165 110.47 356.978 38.594zM643.050 821.588c29.242-10.2 51.779-34.39 67.194-68.712-80.167-6.796-179.855-45.1-277.61-110.43-20.741-3.69-36.042-6.975-51.185-10.663l5.868 1.208c75.485 135.698 177.818 215.775 255.732 188.597zM195.614 204.678c-16.802 22.049-22.952 50.465-19.723 82.809 83.441-43.732 215.364-63.266 360.084-46.324 5.563 0.65 11.099 1.368 16.608 2.127-151.945-91.14-302.16-110.489-356.969-38.612zM380.959 70.258c-29.247 10.205-51.783 34.394-67.199 68.712 80.167 6.8 179.85 45.1 277.605 110.425 20.717 3.683 36.015 6.967 51.155 10.654l-5.847-1.203c-75.476-135.689-177.809-215.766-255.714-188.588zM534.173 256.498c-218.241-25.548-405.094 38.548-417.34 143.167-12.246 104.609 154.753 210.14 372.994 235.684 218.25 25.544 405.099-38.562 417.336-143.176 12.25-104.614-154.744-210.131-372.99-235.675z" />
<glyph unicode="&#xe903;" glyph-name="AEON" d="M768.304 844.635c-19.922 44.346-49.029 75.607-86.823 88.792-100.676 35.112-232.916-68.355-330.45-243.703 11.975 3.204 31.744 7.451 51.701 11.164l6.851 1.059c126.315 84.412 255.132 133.91 358.721 142.688zM255.99 51.365c19.918-44.342 49.038-75.598 86.828-88.787 100.672-35.117 232.907 68.364 330.441 243.69-11.967-3.198-31.74-7.441-51.701-11.151l-6.86-1.059c-126.315-84.416-255.123-133.906-358.707-142.693zM481.175 712.585c186.994 21.886 357.466-3.35 465.285-59.857 4.172 41.786-3.775 78.515-25.49 106.998-70.82 92.874-264.93 67.885-461.271-49.873 1.008 0.302 8.357 1.266 15.726 2.162l5.749 0.57zM543.114 183.429c-186.989-21.9-357.461 3.337-465.281 59.843-4.168-41.795 3.77-78.519 25.49-106.989 70.82-92.883 264.926-67.885 461.258 49.878-7.116-0.984-14.26-1.906-21.466-2.732zM379.266 427.936c-26.212-9.072-39.564-43.845-17.637-61.234 21.923-17.403 58.714-9.324 75.846 7.807 17.136 17.132 27.467 59.207 27.467 59.207s-59.464 3.296-85.676-5.78zM592.206 527.479c-28.474-20.161-31.238-61.993-31.238-61.993s30.98-2.782 72.315 1.766c41.33 4.534 48.64 38.047 38.562 58.719-10.088 20.649-51.151 21.665-79.639 1.508zM1022.767 507.764c-15.822 135.184-257.254 218.015-539.271 185.011-282.012-33.012-497.801-169.37-481.975-304.549s257.272-218.006 539.276-184.993c282.008 33.008 497.801 169.356 481.97 304.531zM765.075 483.038c-18.807-59.134-110.195-70.224-110.195-70.224-36.629-5.044-103.833-4.362-103.833-4.362-4.696-41.669 21.168-47.715 66.878-48.397 45.692-0.659 102.474 25.548 102.474 25.548l-14.111-72.581s-56.113-15.118-97.787-14.445c-41.66 0.659-97.096-1.355-130.944 50.727-33.843-37.961-77.368-53.413-135.495-53.756-58.132-0.334-99.796 34.277-83.667 108.529 16.125 74.261 113.234 82.326 113.234 82.326 49.39 6.719 105.165 4.701 105.165 4.701 7.062 45.362-35.947 48.053-79.964 47.715s-89.37-24.871-89.37-24.871l12.427 71.57s47.372 11.090 107.861 15.795c60.48 4.705 105.499-18.482 119.953-51.408 35.618 38.982 101.128 62.842 159.599 51.747 58.457-11.090 76.605-59.477 57.775-118.612z" />
<glyph unicode="&#xe904;" glyph-name="AMP-alt" d="M487 448.725c0-46.874-37.999-84.872-84.872-84.872s-84.872 37.999-84.872 84.872c0 46.874 37.999 84.872 84.872 84.872s84.872-37.999 84.872-84.872zM663.744 533.597c-0.312 0-0.614-0.041-0.921-0.050l0.050 0.050c-66.206 0-119.872 53.666-119.872 119.872 0 46.875-38.002 84.877-84.877 84.877s-84.868-38.002-84.868-84.877 37.998-84.868 84.868-84.868c0.307 0 0.614 0.045 0.926 0.050l-0.050-0.050c66.201 0 119.876-53.671 119.876-119.872s-53.675-119.867-119.876-119.867c-46.87 0-84.868-38.002-84.868-84.872 0-46.875 38.002-84.872 84.868-84.872 46.875 0 84.872 37.998 84.872 84.872 0 66.206 53.671 119.872 119.872 119.872 46.87 0 84.872 38.002 84.872 84.868 0 46.87-38.002 84.868-84.872 84.868zM512.002 960c-282.771 0-512.002-229.231-512.002-511.998 0-282.771 229.231-512.002 512.002-512.002 282.766 0 511.998 229.231 511.998 512.002 0 282.766-229.231 511.998-511.998 511.998zM511.998 59.516c-214.552 0-388.487 173.926-388.487 388.482 0 214.565 173.935 388.487 388.487 388.487 214.561 0 388.482-173.926 388.482-388.487 0.005-214.556-173.922-388.482-388.482-388.482z" />
<glyph unicode="&#xe905;" glyph-name="AMP" d="M511.998 960c-282.771 0-511.998-229.222-511.998-512.002 0-282.775 229.231-511.998 512.002-511.998 282.766 0 511.998 229.227 511.998 511.998-0.005 282.78-229.236 512.002-512.002 512.002zM255.344 448.955c0 61.776 50.076 111.852 111.857 111.852 61.771 0 111.852-50.076 111.852-111.852 0-61.78-50.081-111.852-111.852-111.852-61.78 0-111.857 50.076-111.857 111.852zM711.987 337.103c-87.248 0-157.978-70.73-157.978-157.982 0-61.78-50.081-111.852-111.857-111.852s-111.852 50.076-111.852 111.852c0 61.776 50.076 111.852 111.852 111.852 87.248 0 157.987 70.73 157.987 157.982s-70.739 157.982-157.987 157.982l0.063 0.059c-0.411-0.005-0.813-0.059-1.219-0.059-61.78 0-111.857 50.081-111.857 111.857 0 61.771 50.076 111.857 111.857 111.857 61.771 0 111.852-50.085 111.852-111.857h0.009c0-87.257 70.725-157.987 157.978-157.987l-0.063-0.063c0.406 0.009 0.808 0.063 1.215 0.063 61.78 0 111.857-50.076 111.857-111.852 0.005-61.776-50.076-111.852-111.857-111.852z" />
<glyph unicode="&#xe906;" glyph-name="ANC-alt" d="M512.002 960c-282.771 0-512.002-229.231-512.002-511.998 0-282.771 229.231-512.002 512.002-512.002 282.766 0 511.998 229.231 511.998 512.002 0 282.766-229.231 511.998-511.998 511.998zM511.998 68.718c-104.176 0-198.526 42.007-267.071 109.992l40.865 74.193h453.121l40.544-73.814c-68.581-68.21-163.089-110.371-267.459-110.371zM661.373 394.684l36.571-66.865h-371.301l36.449 66.865h298.282zM403.939 469.604l108.059 198.197 108.402-198.197h-216.462zM830.626 242.193l-318.628 585.098-318.989-584.543c-38.147 59.17-60.299 129.625-60.299 205.254 0 209.476 169.812 379.293 379.289 379.293s379.284-169.812 379.284-379.293c0-75.873-22.284-146.531-60.656-205.81z" />
<glyph unicode="&#xe907;" glyph-name="ANC" d="M818.308 184.63h-611.667l-55.17-100.148c92.535-91.777 219.902-148.486 360.527-148.486 140.887 0 268.471 56.913 361.046 148.992l-54.736 99.642zM511.998 960c-282.771 0-511.998-229.236-511.998-512.002 0-102.094 29.897-197.208 81.395-277.077l430.602 789.079zM1024 447.998c0 282.766-229.231 512.002-512.002 512.002l430.115-789.824c51.797 80.023 81.888 175.403 81.888 277.822zM366.126 477.154h292.204l-146.332 267.549zM261.779 285.762h501.219l-49.354 90.259h-402.661z" />
<glyph unicode="&#xe908;" glyph-name="ARCH-alt" d="M530.741 891.939l-530.741-887.877h530.741l-19.922 40.788h-436.35l261.815 453.432 270.34-494.22h418.329z" />
<glyph unicode="&#xe909;" glyph-name="ARCH" d="M511.984 960c-282.766 0-511.984-229.218-511.984-511.984s229.222-511.984 511.984-511.984 511.984 229.222 511.984 511.984-229.222 511.984-511.984 511.984zM562.81 242.852l-145.953 266.827-141.356-244.801h235.589l10.756-22.026h-286.55l286.546 479.365 266.827-479.365h-225.858z" />
<glyph unicode="&#xe90a;" glyph-name="ARDR-alt" d="M512 958.655c-282.028 0-510.655-228.626-510.655-510.655 0-282.032 228.626-510.658 510.655-510.658s510.653 228.626 510.653 510.658c0 282.028-228.625 510.655-510.653 510.655zM212.721 253.734l296.903 518.655 76.602-131.958-225.449-386.697h-148.056zM371.314 253.734l121.419 208.638 75.794-93.821-197.212-114.816zM674.53 253.851l-178.078 217.189 142.176 77.483 172.649-294.672h-136.747z" />
<glyph unicode="&#xe90b;" glyph-name="ARDR" d="M507.939 891.656l-507.939-887.311h253.286l385.7 661.556zM271.315 4.345l337.383 196.431-129.667 160.508zM728.628 508.67l-243.228-132.56 304.654-371.558h233.945z" />
<glyph unicode="&#xe90c;" glyph-name="AUR-alt" d="M511.917 960c-282.727 0-511.917-229-511.917-511.518 0-282.493 229.191-511.501 511.916-511.501 282.72 0 511.916 229.008 511.916 511.501 0.002 282.519-229.194 511.518-511.914 511.518zM642.511 552.249l35.354-67.755-236.828-123.546v-197.61h-76.413v553.976h76.413v-86.59l201.477 105.099 35.354-67.745-236.828-123.553v-97.379l201.473 105.102z" />
<glyph unicode="&#xe90d;" glyph-name="AUR" d="M728.447 630.119l-359.599-187.581v173.8l422.682 220.505-63.083 120.921-359.599-187.583v154.56h-136.379v-988.743h136.379v352.687l422.682 220.516z" />
<glyph unicode="&#xe90e;" glyph-name="BANX-alt" d="M838.162 308.488l53.409 87.040 49.006-87.040h82.673l-92.178 137.17 84.498 123.99h-77.557l-46.441-81.197-43.895 81.197h-80.104l85.229-123.99-92.91-137.17zM398.443 569.648h-69.136l-97.651-261.16h69.859l16.463 46.816h91.077l16.093-46.816h70.969l-97.674 261.16zM333.701 405.787l29.63 91.438h0.741l28.881-91.438h-59.252zM182.907 451.506c20.478 10.246 34.376 29.256 34.376 52.668 0 54.501-49.372 66.206-94.364 65.474h-122.17v-261.16h125.457c55.974 0 101.683 19.024 101.683 81.201 0 29.626-17.186 53.765-44.983 61.816zM68.784 516.976h52.673c14.273 0 27.806-6.213 27.806-25.241 0-18.644-16.098-24.871-27.806-24.871h-52.673v50.112zM123.281 362.985h-54.497v59.979h54.497c20.491 0 36.584-7.667 36.584-30.714 0-21.584-15-29.265-36.584-29.265zM675.669 408.709l-90.715 160.94h-69.868v-261.16h64.020v162.768h0.722l90.715-162.768h69.854v261.16h-64.006v-160.94zM128.469 273.543c-2.158 0-3.908-1.748-3.91-3.906v0-93.994c0-2.154 1.757-3.906 3.91-3.906h56.768c2.157 0.003 3.905 1.749 3.91 3.905v0 93.994c-0.003 2.158-1.752 3.906-3.91 3.906 0 0 0 0 0 0h-56.768zM185.242 600.539c2.155 0.003 3.903 1.747 3.91 3.901v93.995c0 2.16-1.751 3.91-3.91 3.91v0h-56.773c-0.001 0-0.003 0-0.005 0-2.157 0-3.906-1.749-3.906-3.906 0-0.002 0-0.003 0-0.005v0-93.989c0-2.149 1.757-3.901 3.91-3.901h56.773zM61.433 600.539c2.155 0.003 3.903 1.747 3.91 3.901v93.995c0 0.001 0 0.003 0 0.005 0 2.157-1.749 3.906-3.906 3.906-0.002 0-0.003 0-0.005 0h-56.772c-0.003 0-0.006 0-0.009 0-2.155 0-3.901-1.747-3.901-3.901 0-0.003 0-0.006 0-0.010v0-93.989c0-2.149 1.747-3.901 3.91-3.901h56.773zM4.66 273.543c-0.001 0-0.003 0-0.005 0-2.157 0-3.906-1.749-3.906-3.906 0 0 0 0 0 0v0-93.994c0-2.154 1.747-3.906 3.91-3.906h56.768c2.157 0.003 3.905 1.749 3.91 3.905v0 93.994c0 2.157-1.749 3.906-3.906 3.906-0.002 0-0.003 0-0.005 0h-56.768z" />
<glyph unicode="&#xe90f;" glyph-name="BANX" d="M238.375 431.923h-42.147v-46.392h42.147c16.689 0 28.289 5.933 28.289 22.636-0.005 17.822-12.449 23.756-28.289 23.756zM424.028 489.35l-22.916-70.716h45.827l-22.342 70.716zM258.464 485.106c0 14.716-10.471 19.525-21.503 19.525h-40.734v-38.756h40.734c9.053 0 21.503 4.809 21.503 19.231zM512.183 959.616c-282.658 0-511.804-229.145-511.804-511.808s229.145-511.808 511.804-511.808c282.676 0 511.817 229.141 511.817 511.808s-229.141 511.808-511.817 511.808zM239.364 644.971c0 1.671 1.35 3.021 3.021 3.021h43.908c1.666 0 3.021-1.35 3.021-3.021v-72.694c-0.003-1.667-1.354-3.018-3.021-3.021v0h-43.908c-1.671 0-3.021 1.355-3.021 3.021v72.694zM143.6 644.971c0 1.671 1.35 3.021 3.025 3.021h43.904c1.675 0 3.025-1.35 3.025-3.021v-72.694c-0.003-1.669-1.356-3.021-3.025-3.021h-43.904c0 0 0 0 0 0-1.669 0-3.023 1.352-3.025 3.021v0 72.694zM193.559 240.639c0-1.671-1.354-3.025-3.025-3.025v0h-43.904c-1.671 0-3.025 1.354-3.025 3.025v0 72.694c0 1.671 1.354 3.025 3.025 3.025v0h43.904c1.671 0 3.025-1.354 3.025-3.025v0-72.694zM289.314 240.639c0-1.666-1.355-3.025-3.021-3.025h-43.908c-1.669 0.003-3.021 1.356-3.021 3.025v0 72.694c0 0 0 0 0 0 0 1.669 1.352 3.023 3.021 3.025v0h43.908c1.669-0.003 3.021-1.356 3.021-3.025v0-72.694zM240.637 343.379h-97.037v201.99h94.486c34.801 0.564 72.988-8.485 72.988-50.641 0-18.102-10.747-32.814-26.587-40.734 21.503-6.227 34.792-24.903 34.792-47.814 0-48.094-35.356-62.801-78.641-62.801zM471.837 343.379l-12.449 36.214h-70.441l-12.729-36.214h-54.032l75.53 201.99h53.467l75.539-201.99h-54.885zM715.654 343.379h-54.023l-70.161 125.891h-0.56v-125.891h-49.516v201.99h54.041l70.157-124.473h0.564v124.473h49.498v-201.99zM870.475 343.379l-37.894 67.33-41.307-67.33h-60.539l71.863 106.090-65.93 95.899h61.961l33.956-62.801 35.916 62.801h59.974l-65.343-95.899 71.29-106.090h-63.948z" />
<glyph unicode="&#xe910;" glyph-name="BAT-alt" d="M512 960c-282.638 0-512-229.362-512-512s229.362-512 512-512 512 229.362 512 512-229.362 512-512 512zM492.134 796.864v-223.533l-117.191-204.556-194.041-111.764 311.232 539.853zM199.581 224.056l193.589 112.875h237.656l193.58-112.875h-624.825zM647.247 368.775l-118.993 204.547v223.537l312.135-539.853-193.142 111.769z" />
<glyph unicode="&#xe911;" glyph-name="BAT" d="M483.975 901.644l-483.975-838.271 300.595 173.547 183.381 317.63zM696.51 187.729h-369.024l-300.599-173.547h970.208zM540.025 554.531l183.376-317.612 300.599-173.556-483.975 838.267z" />
<glyph unicode="&#xe912;" glyph-name="BAY-alt" d="M657.486 445.045l13.307 17.294c4.037 5.459 26.108 44.834 26.108 86.651 0 16.274-9.672 45.222-30.886 70.333-12.837 15.19-40.233 40.675-79.553 40.675h-153.214v-50.88h143.962c29.409 0 56.127-20.198 64.995-49.11 2.081-6.358 3.281-13.675 3.281-21.273 0-19.315-7.757-36.819-20.326-49.565l0.008 0.008c-5.906-5.911-29.251-26.348-47.954-42.599 19.796-18.793 46.563-44.251 53.16-50.844 21.783-21.783 17.606-60.647 5.17-77.824-10.069-13.903-27.969-32.385-67.063-32.385h-194.015v242.642h55.504v-187.129h138.507c14.129 0 17.895 3.734 21.29 8.308 0.646 2.213 0.754 6.164 0.244 8.236-10.336 10.178-51.887 49.589-73.213 69.777l-22.32 21.119 23.273 20.062c23.169 19.972 62.182 53.892 68.174 59.888 0.244 0.248 6.010 6.155 3.206 15.316-1.991 6.484-7.505 9.866-11.921 9.866h-250.35v-318.583h238.786c57.423 0 98.234 22.361 121.312 66.449 32.037 61.193-15.222 125.967-15.723 126.595l-13.75 16.969zM512.476 960c-283.033 0-512.476-229.444-512.476-512.476s229.444-512.476 512.481-512.476c283.028 0 512.476 229.444 512.476 512.476s-229.448 512.476-512.481 512.476zM736.14 275.747c-19.994-38.187-49.72-65.524-88.372-81.256-24.383-9.925-52.018-14.96-82.122-14.96h-294.294v429.591h106.384v106.388h208.731c45.764 0 89.072-21.439 121.958-60.358 27.129-32.123 43.99-72.807 43.99-106.158 0-42.59-15.339-80.867-26.885-102.826 7.834-13.226 14.638-28.51 19.621-44.594l0.41-1.536c13.303-44.111 10.051-87.094-9.419-124.292z" />
<glyph unicode="&#xe913;" glyph-name="BAY" d="M630.831-64h-562.264v820.751h203.254v203.249h398.782c87.415 0 170.16-40.955 232.988-115.316 51.833-61.374 84.037-139.089 84.037-202.82 0-81.368-29.301-154.487-51.35-196.454 14.956-25.265 27.953-54.461 37.475-85.185l0.784-2.939c25.44-84.276 19.213-166.399-17.99-237.472-38.178-72.947-94.996-125.173-168.842-155.232-46.59-18.965-99.371-28.583-156.876-28.583zM174.608 42.045h456.223c109.694 0 187.667 42.721 231.764 126.943 61.193 116.909-29.084 240.669-30.028 241.875l-26.275 32.416 25.431 33.035c7.694 10.435 49.873 85.654 49.873 165.55 0 31.084-18.477 86.39-59.003 134.375-24.528 29.025-76.88 77.715-151.981 77.715h-292.737v-97.209h275.050c56.177 0 107.233-38.575 124.157-93.827 3.982-12.154 6.278-26.142 6.278-40.666 0-36.893-14.816-70.326-38.823-94.673l0.015 0.016c-11.293-11.284-55.883-50.329-91.627-81.382 37.821-35.902 88.968-84.547 101.566-97.141 41.619-41.619 33.636-115.853 9.875-148.685-19.231-26.564-53.44-61.871-128.108-61.871h-370.687v463.583h106.045v-357.538h264.632c26.984 0 34.173 7.143 40.648 15.881 1.242 4.226 1.458 11.776 0.483 15.741-19.755 19.444-99.137 94.739-139.884 133.301l-42.635 40.35 44.464 38.327c44.278 38.16 118.779 102.961 130.239 114.421 0.47 0.47 11.487 11.758 6.123 29.269-3.793 12.372-14.323 18.847-22.767 18.847h-478.312v-608.655z" />
<glyph unicode="&#xe914;" glyph-name="BC-alt" d="M40.698 943.586s122.26-31.486 122.26-213.039v-547.873c0-214.403-122.26-226.721-122.26-226.721v-18.247l199.809 9.582v1003.143l-199.809 9.568v-16.414zM804.125 715.719c2.732-145.673-56.123-202.54-56.123-202.54s144.395 46.532 141.645 212.127c-2.732 165.591-197.754 208.018-197.754 208.018s109.486-71.927 112.231-217.604zM790.795 459.119s86.408-76.921 90.575-240.66c4.186-163.748-90.575-244.494-90.575-244.494s182.343 51.323 180.288 246.34c-2.055 195.018-180.288 238.813-180.288 238.813zM732.957 423.542c-32.845 27.368-125.913 58.845-125.913 58.845s61.591 30.791 89.645 75.268c28.054 44.482 49.954 125.909 29.432 211.44-20.527 85.536-95.8 171.072-183.386 183.386-87.591 12.323-124.766-2.050-231.065-3.423v-1000.858s161.265-11.858 248.169-11.176c86.9 0.682 220.331 60.218 244.963 222.39 24.632 162.168-39.009 236.754-71.845 264.127zM402.453 865.577c15.736 15.050 97.168 41.741 174.49-11.636s97.389-209.616 33.527-292.642-223.068-61.13-223.068-61.13-0.691 350.354 15.050 365.408zM720.86 154.846c-36.945-142.788-149.163-146.906-208.018-144.616-58.845 2.289-115.424 1.377-121.804 166.968-6.376 165.595-3.648 254.098-3.648 254.098s175.172 6.845 234.939-19.164c59.762-26.004 135.491-114.498 98.532-257.286z" />
<glyph unicode="&#xe915;" glyph-name="BC" d="M576.14 506.559c32.936 42.82 22.586 123.403-17.29 150.933-39.88 27.531-81.879 13.759-89.997 6.001-8.119-7.767-7.762-188.457-7.762-188.457s82.109-11.298 115.049 31.522zM582.249 429.62c-30.822 13.411-121.163 9.88-121.163 9.88s-1.404-45.642 1.878-131.052c3.301-85.401 32.475-84.931 62.823-86.114 30.362-1.179 88.236 0.944 107.292 74.591 19.055 73.642-19.999 119.289-50.83 132.696zM512.278 959.449c-282.617 0-511.727-229.109-511.727-511.727s229.109-511.722 511.727-511.722 511.722 229.105 511.722 511.722-229.105 511.727-511.722 511.727zM720.133 591.142c1.409-85.405-73.060-109.405-73.060-109.405s30.353 29.332 28.94 104.46c-1.413 75.137-57.875 112.231-57.875 112.231s100.586-21.882 101.995-107.287zM385.33 189.877l-103.056-4.944v9.41s63.058 6.358 63.058 116.932v282.577c0 93.637-63.058 109.879-63.058 109.879v8.462l103.056-4.935v-517.38zM550.022 184.585c-44.82-0.357-127.999 5.762-127.999 5.762v516.197c54.827 0.709 73.999 8.119 119.172 1.77 45.177-6.344 84.001-50.469 94.585-94.585 10.589-44.111-0.7-86.114-15.181-109.048-14.463-22.943-46.229-38.828-46.229-38.828s47.999-16.233 64.946-30.344c16.937-14.12 49.76-52.587 37.054-136.231-12.706-83.64-81.526-114.345-126.347-114.692zM669.14 203.635s48.871 41.651 46.721 126.094c-2.158 84.452-46.721 124.13-46.721 124.13s91.926-22.591 92.982-123.172c1.061-100.582-92.982-127.051-92.982-127.051z" />
<glyph unicode="&#xe916;" glyph-name="BCN-alt" d="M858.834 521.532s95.43 58.665 95.43 162.321c0 103.652-100.36 235.797-258.315 235.797h-443.656v-289.522h-252.292v-123.398h252.292v-163.703h-252.292v-123.394h252.292v-243.288h410.752c194.146 0 360.319 105.901 360.319 298.412-0.005 192.467-164.529 246.774-164.529 246.774zM625.205 789.709c82.271 0 166.178-39.465 166.178-129.151 0-89.668-88.841-134.904-171.117-134.904h-199.073v264.054h204.013zM652.997 131.605h-231.805v286.27h230.342c153.006 0 216.331-63.32 216.331-156.293 0-92.96-111.206-129.977-214.868-129.977z" />
<glyph unicode="&#xe917;" glyph-name="BCN" d="M588.471 432.347h-124.053v-154.171h124.839c55.829 0 115.717 19.927 115.717 69.994 0.005 50.072-34.101 84.177-116.503 84.177zM663.789 563.051c0 48.302-45.191 69.556-89.492 69.556h-109.874v-142.214h107.21c44.306 0 92.156 24.365 92.156 72.658zM512.652 958.7c-282.414 0-511.352-228.938-511.352-511.352 0-282.41 228.938-511.348 511.352-511.348 282.41 0 511.348 228.938 511.348 511.348 0 282.414-228.938 511.352-511.348 511.352zM594.676 194.559h-221.225v131.020h-135.87v66.454h135.874v88.169h-135.874v66.463h135.874v155.923h238.94c85.076 0 139.126-71.173 139.126-126.992 0-55.829-51.39-87.424-51.39-87.424s88.602-29.247 88.602-132.903c-0.005-103.675-89.501-160.709-194.056-160.709z" />
<glyph unicode="&#xe918;" glyph-name="BFT-alt" d="M544.371 412.624c-11.592 8.785-26.978 13.185-46.091 13.185h-96.078v-110.315h94.391c8.632 0 16.875 0.86 24.735 2.524 7.887 1.71 14.816 4.526 20.809 8.455 5.954 3.939 10.753 9.275 14.309 16.037 3.552 6.774 5.381 15.375 5.381 25.894 0.002 20.644-5.818 35.364-17.455 44.219zM512.891 958.701c-282.279 0-511.107-228.639-511.107-510.712 0-282.040 228.828-510.694 511.107-510.694 282.274 0 511.107 228.654 511.107 510.694 0.002 282.075-228.833 510.712-511.107 510.712zM638.238 310.735c-7.853-14.893-18.425-26.976-31.762-36.339-13.264-9.394-28.452-16.285-45.515-20.79-17.023-4.497-34.562-6.766-52.526-6.766h-194.506v401.868h188.861c19.089 0 36.542-1.667 52.279-5.049 15.735-3.392 29.219-8.914 40.469-16.615 11.241-7.679 19.946-17.921 26.132-30.692 6.188-12.731 9.272-28.473 9.272-47.249 0-20.262-4.574-37.132-13.748-50.656-9.225-13.522-22.798-24.578-40.769-33.188 24.735-7.178 43.213-19.626 55.337-37.452 12.205-17.837 18.294-39.332 18.294-64.482 0-20.264-3.925-37.791-11.818-52.59zM768.052 246.84h-88.277v86.65h88.277v-86.65zM530.329 497.318c10.113 7.478 15.184 19.7 15.184 36.604 0 9.334-1.71 17.037-5.071 23.044-3.363 5.967-7.875 10.708-13.464 14.095-5.644 3.318-12.117 5.708-19.399 7.018-6.803 1.253-14.631 1.97-22.627 1.97-0.058 0-0.116 0-0.174 0h-82.574v-93.985h89.352c15.755-0.003 28.657 3.736 38.773 11.254z" />
<glyph unicode="&#xe919;" glyph-name="BFT" d="M541.214 523.787c13.17 9.735 19.774 25.648 19.774 47.667 0 12.15-2.224 22.194-6.604 30.014-4.376 7.775-10.259 13.944-17.541 18.353-7.345 4.321-15.776 7.428-25.253 9.146-8.886 1.631-19.111 2.563-29.555 2.563-0.048 0-0.096 0-0.143 0h-107.541v-122.399h116.359c20.529 0.002 37.323 4.866 50.503 14.656zM559.5 413.482c-15.1 11.439-35.13 17.188-60.030 17.188h-125.119v-143.666h122.929c11.235 0 21.984 1.108 32.214 3.274 10.266 2.229 19.29 5.893 27.095 11.023 7.751 5.124 14.004 12.067 18.638 20.881 4.615 8.825 7.006 20.027 7.006 33.719 0 26.882-7.579 46.057-22.734 57.58zM0.523 960v-1024h1024v1024h-1024zM681.749 280.804c-10.225-19.392-23.993-35.14-41.367-47.33-17.276-12.229-37.060-21.205-59.28-27.074-22.166-5.861-45.002-8.809-68.402-8.809h-253.306v523.343h245.956c24.86 0 47.586-2.161 68.084-6.569 20.496-4.409 38.051-11.603 52.705-21.626 14.635-10.015 25.982-23.347 34.027-39.971 8.056-16.6 12.072-37.089 12.072-61.538 0-26.388-5.957-48.374-17.902-65.977-12.012-17.605-29.685-32.008-53.090-43.223 32.211-9.348 56.271-25.555 72.068-48.775 15.889-23.219 23.818-51.219 23.818-83.965-0.003-26.39-5.109-49.211-15.382-68.486zM850.795 197.591h-114.966v112.854h114.966v-112.854z" />
<glyph unicode="&#xe91a;" glyph-name="BRK-alt" d="M512.998 518.082h-20.584v-64.235h18.322c13.798 0 34.603 4.976 34.603 31.889 0.005 26.914-17.636 32.345-32.341 32.345zM366.265 430.775h-25.275v-58.582h25.009c12.1 0 30.521 6.366 30.521 28.575 0 22.214-10.624 30.007-30.255 30.007zM387.698 491.958c0 19.338-8.935 26.124-25.446 26.124h-21.261v-51.001h21.035c10.177 0 25.672 5.535 25.672 24.878zM512 960c-282.638 0-512-229.362-512-512s229.362-512 512-512 512 229.362 512 512-229.362 512-512 512zM895.196 366.825s-31.618-33.564-68.456-97.366c-36.838-63.806-50.094-107.967-50.094-107.967l45.579-26.313c-51.724-50.943-115.922-89.243-187.611-109.89v54.202s-44.874 10.601-118.55 10.601-118.55-10.601-118.55-10.601v-56.442c-73.563 19.667-139.558 57.814-192.718 109.186l50.685 29.262s-13.256 44.161-50.094 107.967c-36.838 63.801-68.456 97.366-68.456 97.366l-52.333-30.214c-9.373 34.005-14.76 73.052-14.76 113.356 0 0.086 0 0.173 0 0.259v-0.014c0 0.086 0 0.189 0 0.291 0 39.419 5.149 77.636 14.812 114.014l-0.698-3.092 52.983-30.589s31.618 33.564 68.456 97.366 50.094 107.967 50.094 107.967l-52.46 30.287c53.457 52.238 120.103 91.027 194.488 110.915v-59.205s44.874-10.601 118.55-10.601 118.55 10.601 118.55 10.601v56.966c72.506-20.886 137.364-59.815 189.39-111.629l-47.353-27.338s13.256-44.166 50.094-107.967 68.456-97.366 68.456-97.366l45.877 26.485c8.318-32.1 13.094-68.952 13.094-106.919 0-0.067 0-0.134 0-0.201v0.011c0-0.087 0-0.191 0-0.294 0-38.807-4.992-76.448-14.369-112.316l0.684 3.081-45.29 26.142zM512 793.031c-189.336 0-342.823-153.487-342.823-342.823s153.487-342.823 342.823-342.823c189.336 0 342.823 153.487 342.823 342.823s-153.487 342.823-342.823 342.823zM435.421 387.011c-5.766-41.728-43.087-54.961-67.513-54.961h-66.835v225.614h67.639c44.229 0 59.246-27.14 58.568-61.747-0.849-27.311-21.374-42.071-29.858-43.087 21.713-6.109 43.764-24.092 37.998-65.82zM548.567 332.051l-34.923 81.807c-0.966-0.023-16.349-0.045-21.225-0.045v-81.762h-40.712v225.614h70.344c31.212 0 62.876-17.64 62.876-70.344 0-33.104-12.231-53.616-32.029-64.298l40.626-90.973h-44.956zM713.847 332.051l-44.829 92.896-19.83-33.208v-59.688h-40.080v225.614h40.080v-90.986l54.072 90.986h44.996l-53.882-90.241 63.711-135.373h-44.238z" />
<glyph unicode="&#xe91b;" glyph-name="BRK" d="M1011.543 572.027l-53.119-30.67s-36.612 38.865-79.265 112.744c-42.653 73.879-58.009 125.020-58.009 125.020l54.835 31.659c-60.244 59.995-135.346 105.077-219.302 129.26v-65.96s-51.963-12.276-137.274-12.276-137.274 12.276-137.274 12.276v68.551c-86.132-23.026-163.307-67.946-225.217-128.438l60.749-35.072s-15.351-51.141-58.009-125.020-79.265-112.744-79.265-112.744l-61.35 35.42c-10.378-38.539-16.34-82.787-16.34-128.427 0-0.123 0-0.246 0-0.369v0.019c0-45.48 5.96-89.564 17.089-131.544l60.6 34.987s36.612-38.865 79.265-112.744c42.653-73.879 58.009-125.020 58.009-125.020l-58.69-33.885c61.557-59.48 137.978-103.655 223.158-126.429v65.359s51.963 12.276 137.274 12.276 137.274-12.276 137.274-12.276v-62.763c83.013 23.911 157.347 68.262 217.243 127.251l-52.776 30.472s15.351 51.137 58.009 125.020c42.653 73.879 79.265 112.744 79.265 112.744l52.437-30.273c10.064 37.972 15.843 81.567 15.843 126.512 0 0.112 0 0.224 0 0.335v-0.017c0 0.067 0 0.147 0 0.226 0 43.96-5.529 86.629-15.931 127.349l0.77-3.553zM514.704 51.033c-219.239 0-396.967 177.728-396.967 396.967s177.728 396.967 396.967 396.967 396.967-177.728 396.967-396.967-177.728-396.967-396.967-396.967zM382.027 451.030c9.82 1.178 33.587 18.268 34.571 49.891 0.786 40.071-16.602 71.499-67.815 71.499h-78.322v-261.246h77.391c28.286 0 71.499 15.319 78.177 63.643 6.678 48.319-18.859 69.143-44.003 76.213zM316.686 526.588h24.62c19.116 0 29.465-7.856 29.465-30.25s-17.943-28.81-29.727-28.81h-24.358v59.061zM345.641 357.66h-28.959v67.833h29.266c22.728 0 35.027-9.025 35.027-34.743 0.005-25.717-21.324-33.090-35.334-33.090zM599.144 490.969c0 61.025-36.666 81.45-72.809 81.45h-81.45v-261.246h47.141v94.679c5.648 0 23.464 0.027 24.58 0.050l40.436-94.729h52.053l-47.042 105.339c22.932 12.376 37.091 36.129 37.091 74.457zM513.242 452.208h-21.216v74.38h23.835c17.022 0 37.452-6.285 37.452-37.452s-24.097-36.928-40.071-36.928zM788.272 572.42h-52.103l-62.609-105.357v105.357h-46.414v-261.246h46.414v69.115l22.959 38.454 51.909-107.57h51.227l-73.77 156.751z" />
<glyph unicode="&#xe91c;" glyph-name="BRX-alt" d="M362.78 430.17h-26.354v-61.074h26.074c12.615 0 31.822 6.637 31.822 29.794 0 23.153-11.075 31.28-31.542 31.28zM515.766 521.193h-21.46v-66.971h19.103c14.385 0 36.079 5.188 36.079 33.248-0.005 28.065-18.399 33.722-33.722 33.722zM385.124 493.958c0 20.164-9.314 27.234-26.53 27.234h-22.169v-53.178h21.929c10.61 0 26.769 5.779 26.769 25.943zM512.461 793.392c-189.535 0-343.18-153.645-343.18-343.18s153.645-343.18 343.18-343.18 343.18 153.645 343.18 343.18c0 189.53-153.645 343.18-343.18 343.18zM434.879 384.537c-6.014-43.506-44.924-57.304-70.389-57.304h-69.684v235.227h70.524c46.116 0 61.77-28.295 61.061-64.379-0.885-28.476-22.286-43.863-31.126-44.924 22.634-6.362 45.629-25.108 39.615-68.619zM552.847 327.238l-36.409 85.293c-1.007-0.023-17.044-0.045-22.132-0.045v-85.248h-42.445v235.222h73.337c32.544 0 65.558-18.394 65.558-73.337 0-34.513-12.75-55.9-33.393-67.039l42.355-94.846h-46.87zM761.011 327.238h-46.694l-33.248 85.248-30.417-85.248h-44.924l51.29 120.975-48.459 114.252h47.046l29.713-83.126 26.882 83.126h45.629l-48.107-117.611 51.29-117.616zM512 960c-282.638 0-512-229.362-512-512s229.362-512 512-512 512 229.362 512 512-229.362 512-512 512zM896.059 366.739s-31.65-33.596-68.524-97.47c-36.874-63.869-50.148-108.080-50.148-108.080l45.624-26.34c-51.778-50.992-116.044-89.338-187.806-110.008v54.257s-44.924 10.61-118.672 10.61c-73.752 0-118.672-10.61-118.672-10.61v-56.501c-73.64 19.685-139.703 57.878-192.921 109.299l50.735 29.293s-13.27 44.211-50.148 108.080c-36.874 63.869-68.524 97.47-68.524 97.47l-52.392-30.246c-9.382 34.041-14.773 73.128-14.773 113.474 0 0.086 0 0.172 0 0.259v-0.014c0 0.088 0 0.192 0 0.297 0 39.457 5.154 77.711 14.827 114.124l-0.699-3.094 53.038-30.621s31.65 33.596 68.524 97.47c36.874 63.869 50.148 108.080 50.148 108.080l-52.518 30.323c53.521 52.293 120.239 91.126 194.7 111.033v-59.268s44.924-10.61 118.672-10.61c73.752 0 118.672 10.61 118.672 10.61v57.024c72.583-20.904 137.504-59.878 189.584-111.746l-47.403-27.37s13.27-44.211 50.148-108.080c36.874-63.869 68.524-97.47 68.524-97.47l45.922 26.512c8.327-32.135 13.107-69.025 13.107-107.032 0-0.067 0-0.134 0-0.201v0.011c0-0.087 0-0.191 0-0.294 0-38.847-4.997-76.527-14.383-112.432l0.685 3.084-45.326 26.178z" />
<glyph unicode="&#xe91d;" glyph-name="BRX" d="M376.433 451.413c10.231 1.228 34.982 19.026 36.007 51.963 0.817 41.737-17.288 74.466-70.633 74.466h-81.577v-272.091h80.606c29.46 0 74.466 15.956 81.423 66.285 6.953 50.329-19.64 72.014-45.827 79.378zM308.374 530.11h25.641c19.911 0 30.688-8.181 30.688-31.506s-18.683-30.007-30.959-30.007h-25.37v61.512zM338.534 354.169h-30.16v70.651h30.485c23.672 0 36.481-9.4 36.481-36.188s-22.214-34.463-36.806-34.463zM602.562 493.010c0 63.558-38.188 84.832-75.829 84.832h-84.832v-272.091h49.101v98.607c5.883 0 24.435 0.027 25.6 0.054l42.116-98.662h54.216l-48.992 109.714c23.871 12.886 38.621 37.623 38.621 77.545zM513.093 452.641h-22.096v77.468h24.823c17.73 0 39.005-6.547 39.005-39.005 0-32.463-25.094-38.463-41.732-38.463zM743.041 577.842l-31.099-96.151-34.368 96.151h-54.419l56.054-132.158-59.327-139.933h51.963l35.19 98.607 38.459-98.607h54.013l-59.331 136.046 55.647 136.046zM1008.839 572.027l-53.119-30.67s-36.612 38.865-79.265 112.744c-42.653 73.879-58.009 125.020-58.009 125.020l54.835 31.659c-60.244 59.995-135.341 105.077-219.302 129.26v-65.96s-51.963-12.276-137.274-12.276-137.274 12.276-137.274 12.276v68.551c-86.132-23.026-163.307-67.946-225.217-128.438l60.749-35.072s-15.351-51.141-58.009-125.020-79.265-112.744-79.265-112.744l-61.35 35.42c-10.378-38.539-16.34-82.787-16.34-128.427 0-0.123 0-0.246 0-0.369v0.019c0-45.48 5.96-89.564 17.089-131.544l60.6 34.987s36.612-38.865 79.265-112.744 58.009-125.020 58.009-125.020l-58.69-33.885c61.557-59.48 137.978-103.655 223.158-126.429v65.359s51.963 12.276 137.274 12.276 137.274-12.276 137.274-12.276v-62.763c83.013 23.911 157.347 68.262 217.243 127.251l-52.776 30.472s15.351 51.137 58.009 125.020c42.653 73.879 79.265 112.744 79.265 112.744l52.437-30.273c10.064 37.972 15.843 81.567 15.843 126.512 0 0.112 0 0.224 0 0.335v-0.017c0 0.067 0 0.147 0 0.226 0 43.96-5.529 86.629-15.931 127.349l0.77-3.553zM512 51.033c-219.239 0-396.967 177.728-396.967 396.967s177.728 396.967 396.967 396.967 396.967-177.728 396.967-396.967-177.728-396.967-396.967-396.967z" />
<glyph unicode="&#xe91e;" glyph-name="BSD-alt" d="M512 960c-282.638 0-512-229.362-512-512s229.362-512 512-512 512 229.362 512 512c0 282.638-229.362 512-512 512zM611.33 194.257v156.67h-419.894v79.915h641.129l-221.235-236.586zM832.564 465.157h-641.129l220.783 236.586v-156.67h419.894v-79.915z" />
<glyph unicode="&#xe91f;" glyph-name="BSD" d="M353.072 594.737v250.582l-353.072-377.905h1024v127.323zM0 301.263h670.928v-250.582l353.072 378.356h-1024z" />
<glyph unicode="&#xe920;" glyph-name="BTA" d="M177.864 345.538v614.462h-130.456c-26.185 0-47.408-21.214-47.408-47.394v-128.316h128.501v-232.302h-128.501v-568.987c0-26.163 21.227-47.394 47.408-47.394h412.789c-165.053 63.018-282.333 222.743-282.333 409.931zM943.765 53.289l-164.886 164.9c27.589 35.085 44.179 79.237 44.179 127.349 0 114.020-92.436 206.451-206.451 206.451h-157.088v232.302h157.088c185.133 0 343.368-114.733 407.79-276.914v405.23c0 26.176-21.223 47.394-47.403 47.394h-566.833v-614.462c0-114.011 92.418-206.446 206.446-206.446 48.108 0 92.255 16.59 127.349 44.179l164.895-164.9c-38.389-34.429-83.413-62.421-132.787-81.739l-2.988-1.030h203.918c26.181 0 47.403 21.232 47.403 47.394v200.617c-20.269-50.2-47.475-93.358-80.996-130.737l0.364 0.412z" />
<glyph unicode="&#xe921;" glyph-name="BTC-alt" d="M826.241 450.414c-32.963 24.826-79.919 34.755-79.919 34.755s39.736 23.038 55.974 46.053c16.256 23.024 24.379 58.696 25.738 77.205 1.35 18.518 4.515 96.161-55.987 140.85-46.798 34.579-100.428 48.306-172.445 52.772v156.695h-96.613v-154.844h-73.588v154.844h-96.604v-154.844h-190.064v-100.329h55.865c15.231 0 42.319-1.693 53.829-14.576 11.514-12.86 13.546-19.638 13.546-44.68l0.005-399.775c0-9.478-1.806-21.209-9.939-28.89-8.119-7.681-16.242-9.473-35.663-9.473h-57.78l-19.863-116.038h190.064v-154.406h96.608v154.406h73.588v-154.406h96.613v156.952c24.975 1.458 48.261 3.35 61.844 5.13 27.544 3.603 89.839 10.828 148.089 51.463 58.231 40.639 71.312 104.298 72.672 168.399 1.373 64.106-23.038 107.906-55.969 132.736zM429.401 694.645s30.696 2.705 60.945 2.262c30.258-0.447 56.881-1.355 96.622-13.546 39.722-12.196 63.18-41.994 64.101-77.21 0.899-35.216-14.467-58.683-41.542-73.584-27.084-14.896-64.535-23.024-99.764-24.365-35.207-1.359-80.361 0-80.361 0v186.443zM645.646 232.81c-22.121-12.196-66.368-23.029-109.247-26.181-42.892-3.165-106.998-1.811-106.998-1.811v207.228s61.401 3.152 109.26 0c47.85-3.174 88.029-15.353 106.077-24.397 18.057-9.022 49.67-28.881 49.67-76.293 0-47.394-26.655-66.359-48.762-78.546z" />
<glyph unicode="&#xe922;" glyph-name="BTC" d="M612.814 408.013c-11.803 5.915-38.097 13.88-69.393 15.953-31.31 2.068-71.471 0-71.471 0v-135.554s41.935-0.894 70.003 1.174c28.041 2.068 56.989 9.153 71.461 17.136 14.463 7.974 31.893 20.378 31.893 51.381 0 31.017-20.676 44.003-32.493 49.909zM524.515 486.876c23.047 0.89 47.557 6.2 65.262 15.949 17.723 9.744 27.761 25.092 27.183 48.135-0.605 23.038-15.949 42.526-41.935 50.51-25.995 7.974-43.407 8.566-63.207 8.859-19.787 0.289-39.871-1.481-39.871-1.481v-121.971c0.005 0 29.536-0.89 52.569 0zM512.111 960c-282.83 0-512.111-229.276-512.111-512.111 0-282.83 229.281-512.111 512.111-512.111s512.102 229.281 512.102 512.111c0 282.834-229.272 512.111-512.102 512.111zM720.625 252.081c-38.11-26.582-78.862-31.315-96.879-33.667-8.891-1.17-24.122-2.402-40.454-3.359v-102.672h-63.207v101.011h-48.135v-101.011h-63.203v101.011h-124.333l12.991 75.914h37.799c12.706 0 18.012 1.179 23.327 6.195 5.315 5.026 6.498 12.697 6.498 18.911v261.517c0 16.382-1.332 20.816-8.864 29.229-7.532 8.43-25.246 9.537-35.221 9.537h-36.534v65.623h124.333v101.3h63.198v-101.3h48.135v101.3h63.207v-102.514c47.119-2.921 82.195-11.898 112.809-34.521 39.582-29.238 37.505-80.032 36.62-92.142-0.881-12.11-6.195-35.446-16.838-50.496-10.62-15.068-36.611-30.132-36.611-30.132s30.71-6.493 52.28-22.74c21.543-16.247 37.51-44.888 36.602-86.828-0.867-41.939-9.428-83.585-47.521-110.163z" />
<glyph unicode="&#xe923;" glyph-name="BTCD-alt" d="M95.452 814.151s127.634 145.081 383.989 145.081c256.351 0 518.161-243.261 518.161-525.801 0-282.532-224.716-497.431-467.981-497.431-243.27 0-497.986 175.633-497.986 457.072 0 281.448 247.632 398.177 389.99 394.894 147.226-3.387 292.895-122.716 309.805-257.439 14.775-117.749-51.63-207.638-81.445-235.273-29.82-27.626-113.446-65.451-187.626-45.814-74.184 19.638-109.084 77.824-115.632 108.375-6.547 30.542-10.842 101.516 48.582 135.653 59.414 34.15 99.778-8.399 108.127-29.481 8.358-21.087-3.648-52.366-26.908-57.82-23.268-5.459-43.994 2.931-56.366 13.47 0 0-1.811-50.83 47.819-59.559 49.638-8.728 80.456 19.638 94.91 41.998 14.454 22.365 41.452 95.452-22.907 163.36-64.363 67.903-176.446 62.995-239.992 16.080-63.537-46.902-127.814-133.544-100.907-260.081 26.921-126.545 142.173-244.376 313.63-245.821 171.456-1.449 363.444 135.247 379.447 361.439 15.994 226.179-138.913 386.166-250.174 432.711-111.274 46.554-207.237 65.596-327.266 42.206s-183.264-74.175-219.27-97.818z" />
<glyph unicode="&#xe924;" glyph-name="BTCD" d="M512.029 959.95c-282.757 0-511.975-229.218-511.975-511.975 0-282.753 229.222-511.975 511.975-511.975 282.748 0 511.971 229.222 511.971 511.975s-229.222 511.975-511.971 511.975zM532.692 98.046c-166.331 0-340.501 120.093-340.501 312.528 0 192.453 169.316 272.264 266.66 270.019 100.672-2.312 200.269-83.911 211.838-176.030 10.106-80.51-35.302-141.975-55.694-160.872-20.383-18.884-77.566-44.748-128.284-31.324-50.731 13.424-74.595 53.21-79.075 74.103-4.475 20.879-7.414 69.411 33.22 92.756 40.621 23.345 68.219-5.744 73.936-20.157 5.712-14.422-2.493-35.812-18.405-39.542-15.903-3.73-30.082 2.009-38.539 9.216 0 0-1.237-34.751 32.701-40.725 33.938-5.965 55.007 13.424 64.892 28.714 9.889 15.294 28.343 65.271-15.669 111.699-44.003 46.432-120.639 43.082-164.096 11-43.443-32.078-87.392-91.316-68.996-177.832 18.409-86.534 97.218-167.094 214.448-168.088s248.512 92.472 259.462 247.135c10.927 154.654-94.987 264.050-171.068 295.875-76.085 31.829-141.695 44.856-223.772 28.858-82.073-15.994-125.313-50.713-149.935-66.887 0 0 87.279 99.2 262.56 99.2 175.285 0 354.3-166.327 354.3-359.52 0.009-193.18-153.638-340.126-319.983-340.126z" />
<glyph unicode="&#xe925;" glyph-name="BTS-alt" d="M417.706 318.102l-220.593 220.598v-265.138h203.308c2.086 15.718 8.376 30.913 17.285 44.54zM400.421 230.073h-203.308c4.71-71.787 33.536-136.24 77.025-187.071l143.564 145.154c-8.904 12.038-15.194 26.718-17.281 41.917zM721.095 491.545c-50.839 44.54-115.275 73.363-187.066 77.029v-203.308c16.238-2.623 30.913-8.909 43.497-17.294l143.569 143.573zM611.067 190.247l143.569-143.569c43.497 50.826 70.735 114.223 75.453 184.447h-204.356c-2.628-14.675-7.338-28.298-14.666-40.878zM625.733 273.561h203.299c-4.71 71.782-33.541 136.24-77.011 187.062l-143.587-144.097c8.918-12.052 14.671-27.246 17.299-42.964zM305.059 13.137c50.817-44.536 115.279-73.358 187.062-77.025v203.308c-16.251 2.619-30.926 8.909-43.488 17.285l-143.573-143.569zM534.029 139.421v-203.308c71.787 4.714 136.231 33.536 187.066 78.077l-142.521 142.521c-13.632-8.385-28.307-14.671-44.545-17.29zM197.113 604.192c54.492-54.488 225.307-226.883 254.125-255.191 12.576 7.351 26.208 13.637 39.831 16.26v332.211l-293.432 262.515c-0.524 0-0.524-345.834-0.524-355.795z" />
<glyph unicode="&#xe926;" glyph-name="BTS" d="M512.21 959.129c-282.527 0-511.786-228.816-511.786-511.338 0-282.518 229.258-511.79 511.79-511.79 282.523 0 511.79 229.267 511.79 511.79-0.005 282.523-229.267 511.338-511.795 511.338zM725.917 350.514h-125.773c-1.562 9.839-5.179 19.159-10.864 26.926l89.027 89.027c26.384-31.577 44.504-71.425 47.611-115.952zM542.685 533.227c44.513-2.064 84.376-20.184 115.939-47.615l-89.027-89.031c-7.758 5.17-17.077 9.324-26.912 10.873v125.773zM334.098 775.982l182.194-163.039v-206.004c-8.281-1.558-17.086-5.188-24.329-9.839-17.601 17.597-123.705 124.229-157.35 158.393-0.515 6.213-0.515 220.489-0.515 220.489zM334.098 514.601l136.642-136.642c-5.17-8.286-9.315-17.606-10.873-27.445h-125.769v164.087zM334.098 323.611h125.769c1.553-9.324 5.179-18.635 10.873-25.887l-89.031-90.061c-26.908 31.053-44.504 71.425-47.611 115.948zM516.798 141.412c-44.504 2.073-84.358 20.18-115.93 47.615l89.031 89.022c7.753-5.175 17.073-9.311 26.899-10.864v-125.773zM542.685 141.412v125.773c10.392 1.647 19.66 5.475 27.657 11.009l-0.221-0.145 88.503-88.503c-31.053-27.431-71.421-45.033-115.939-48.135zM679.851 209.736l-89.546 89.022c4.465 7.287 7.728 15.822 9.262 24.944l0.058 0.419h126.803c-3.098-43.484-20.18-82.818-46.577-114.385z" />
<glyph unicode="&#xe927;" glyph-name="CLAM-alt" d="M512.002 960c-282.766 0-511.998-229.231-511.998-512.002s229.231-511.998 512.002-511.998 511.998 229.231 511.998 511.998-229.231 512.002-512.002 512.002zM819.211 571.432c10.927-15.127 14.513-35.568 15.691-48.428l-4.294-10.128c-8.241-19.434-58.606-109.075-109.296-172.928-43.913-55.319-109.902-120.933-125.715-136.484-5.098 4.649-10.728 8.902-16.731 12.608l-0.486 0.279c14.865 19.516 72.468 96.613 108.908 166.634 41.506 79.774 83.477 191.726 90.381 218.412 9.13-3.369 28.754-12.264 41.542-29.965zM678.216 687.317c9.212 0.19 29.517-1.481 52.704-16.612 22.46-14.662 34.028-42.545 38.864-57.518l-2.249-8.823c-5.486-21.579-46.008-132.723-89.605-216.507-36.963-71.033-96.048-149.565-108.917-166.39-4.104 2.050-9.064 4.072-14.184 5.739l-0.803 0.226c11.97 24.605 59.897 125.064 82.249 201.312 26.321 89.763 41.511 209.621 41.939 258.148v0.424zM575.878 741.109c6.272 2.687 18.676 5.233 39.971-0.573 24.397-6.66 43.258-31.54 51.901-44.924l-0.077-8.62c-0.424-47.931-15.452-166.421-41.511-255.285-22.758-77.621-72.441-180.898-82.506-201.502-4.176 0.982-9.309 1.825-14.535 2.346l-0.524 0.042c4.19 26.203 22.519 142.833 34.074 249.108 12.259 112.751 13.212 224.598 13.212 256.193v3.215zM504.281 769.087c28.14 0 51.142-17.294 61.049-26.126v-5.062c0-31.459-0.944-142.837-13.14-255.051-11.7-107.581-30.366-225.876-34.177-249.682-0.921 0.009-1.811 0.072-2.745 0.072-5.306 0-10.349-0.294-15.181-0.808-3.73 22.062-23.819 142.824-36.241 256.347-13.51 123.516-19.001 228.066-19.737 249.298-0.059 1.702-0.095 3.292-0.14 4.89 9.668 8.832 32.182 26.122 60.313 26.122zM377.239 733.622c26.442 12.264 47.037 8.895 56.272 6.195 0.023-0.718 0.032-1.364 0.059-2.104 0.736-21.313 6.249-126.243 19.791-250.079 12.395-113.302 32.407-233.792 36.286-256.69-6.132-1.143-11.374-2.514-16.468-4.21l0.867 0.25c-9.808 21.137-53.499 117.149-82.877 213.346-32.755 107.264-51.521 206.853-55.481 238.28-0.465 3.63-0.867 6.877-1.246 9.803 5.753 12.734 18.464 33.929 42.797 45.209zM276.436 663.782c12.404 9.245 28.030 14.801 44.955 14.801 1.296 0 2.585-0.033 3.865-0.097l-0.18 0.007 0.154-1.206c3.992-31.712 22.907-132.118 55.865-240.037 29.21-95.66 72.473-191.13 83.062-213.996-3.73-1.603-7.256-3.328-10.539-5.179-12.878 15.14-66.305 80.375-115.505 176.125-53.815 104.727-74.234 177.123-82.958 208.036l-1.319 4.683c-0.52 1.394-1.632 5.412-2.675 9.456l-0.558 2.546c2.714 13.108 9.415 32.755 25.833 44.861zM188.814 568.587c12.029 22.23 42.676 32.385 54.827 35.64l0.054-0.194 1.319-4.651c8.805-31.215 29.427-104.329 83.721-210 48.464-94.319 101.128-159.49 115.875-176.965-4.201-2.936-7.871-5.884-11.334-9.055l0.082 0.074c-15.24 13.14-75.981 67.036-138.006 143.162-52.307 64.196-88.435 121.082-107.386 169.117-1.399 3.069-3.869 9.559-6.205 16.111l-1.087 3.495c0.099 10.065 1.987 21.9 8.141 33.265zM325.957 254.759c-106.289 92.228-164.489 156.365-166.792 196.887-1.761 30.917 13.722 48.369 21.164 54.926 19.845-47.891 55.73-103.896 106.845-166.638 61.74-75.765 122.314-129.797 138.737-143.998-3.75-4.138-7.236-8.681-10.336-13.496l-0.248-0.412c-25.377 19.006-55.179 43.055-89.37 72.73zM515.7 124.308c-12.399 0-43.276 15.768-91.885 51.408 7.758 12.72 33.983 46.979 91.447 46.979 57.066 0 83.36-35.13 91.311-48.505-43.249-30.791-78.438-49.882-90.873-49.882zM864.885 457.232c-2.195-39.077-68.301-116.602-151.313-195-29.882-28.206-62.003-55.067-95.685-79.935l-2.833-1.998c-3.752 5.909-7.708 11.046-12.078 15.797l0.071-0.078c16.093 15.827 82.321 81.707 126.514 137.374 50.799 64.002 101.399 153.873 110.484 174.757 8.67-5.726 26.506-21.205 24.839-50.916z" />
<glyph unicode="&#xe928;" glyph-name="CLAM" d="M604.718 870.301c0-45.818-1.386-208.027-19.146-371.536-16.757-154.126-43.344-323.256-49.422-361.254 7.681-0.736 14.937-1.933 21.837-3.463 14.603 29.87 86.656 179.656 119.655 292.222 37.794 128.857 59.59 300.697 60.204 370.204 0.050 4.552 0.086 8.683 0.108 12.508-12.535 19.394-39.88 55.49-75.268 65.144-30.881 8.417-48.871 4.723-57.969 0.826v-4.651zM753.132 796.342c-0.623-70.378-22.654-244.2-60.823-374.376-32.412-110.565-101.905-256.252-119.271-291.937 8.594-2.757 15.784-5.692 22.703-9.094l-0.975 0.433c18.676 24.401 104.357 138.299 157.959 241.306 63.216 121.502 121.985 282.681 129.946 313.968l3.26 12.801c-7.022 21.715-23.801 62.146-56.366 83.4-33.618 21.954-63.072 24.374-76.428 24.099l-0.005-0.601zM766.285 355.616c-52.853-101.561-136.38-213.359-157.946-241.667 9.411-5.768 17.575-11.935 25.092-18.798l-0.126 0.113c22.943 22.541 118.63 117.709 182.316 197.935 73.512 92.594 146.562 222.598 158.51 250.774l6.222 14.689c-1.702 18.644-6.909 48.293-22.749 70.229-18.545 25.67-46.997 38.562-60.254 43.452-10.015-38.697-70.865-201.037-131.065-316.727zM256.401 784.317c5.739-45.565 32.958-189.997 80.461-345.549 42.603-139.5 105.955-278.739 120.188-309.394 6.136 2.101 13.735 4.088 21.516 5.565l1.102 0.174c-5.608 33.216-34.638 207.945-52.619 372.254-19.642 179.588-27.635 331.755-28.7 362.672-0.032 1.066-0.050 2.005-0.086 3.043-13.388 3.928-43.258 8.796-81.608-8.986-35.288-16.364-53.72-47.096-62.060-65.564 0.546-4.231 1.138-8.945 1.806-14.215zM413.624 870.562c1.061-30.795 9.031-182.411 28.623-361.538 18.003-164.629 47.141-339.769 52.551-371.748 6.602 0.734 14.259 1.153 22.014 1.156h0.004c1.355 0 2.646-0.072 3.987-0.090 5.531 34.512 32.602 206.067 49.557 362.080 17.696 162.741 19.078 324.259 19.078 369.883v7.338c-14.386 12.806-47.733 37.885-88.539 37.885-40.802 0-73.453-25.074-87.469-37.876 0.059-2.316 0.113-4.615 0.194-7.089zM516.82 123.152c-83.337 0-121.366-49.683-132.614-68.125 70.482-51.688 115.266-74.555 133.251-74.555 18.030 0 69.059 27.68 131.783 72.328-11.537 19.403-49.665 70.351-132.42 70.351zM987.809 537.115c-13.172-30.285-86.557-160.624-160.222-253.43-64.079-80.741-160.131-176.283-183.467-199.231 6.229-6.773 11.967-14.218 17.027-22.137l0.385-0.644c52.957 38.943 99.541 77.892 143.602 119.483l-0.729-0.682c120.382 113.694 216.258 226.116 219.437 282.803 2.416 43.091-23.449 65.537-36.033 73.837zM42.165 548.078c27.481-69.646 79.874-152.162 155.733-245.248 89.952-110.412 178.040-188.574 200.143-207.629 4.905 4.492 10.225 8.774 15.809 12.708l0.505 0.337c-21.381 25.332-97.755 119.849-168.038 256.636-78.731 153.241-108.646 259.264-121.42 304.535l-1.91 6.746-0.081 0.284c-17.619-4.714-62.065-19.453-79.513-51.688-8.923-16.481-11.659-33.64-11.812-48.239 4.977-14.596 8.561-24.010 12.332-33.329l-1.747 4.886zM387.236 84.337c-23.814 20.59-111.663 98.943-201.195 208.83-74.126 90.973-126.166 172.201-154.952 241.658-10.796-9.501-33.243-34.814-30.687-79.657 3.341-58.764 87.744-151.769 241.884-285.525 49.584-43.028 92.797-77.91 129.598-105.472 4.857 7.578 9.913 14.165 15.467 20.294l-0.114-0.128zM137.694 680.358l1.915-6.791c12.652-44.829 42.265-149.818 120.305-301.7 71.349-138.868 148.829-233.453 167.501-255.407 4.064 2.341 9.086 4.856 14.248 7.109l1.041 0.405c-15.357 33.143-78.099 171.601-120.463 310.333-47.792 156.496-75.218 302.106-81.007 348.096l-0.217 1.747c-13.492 0.732-42.504-0.65-70.545-21.331-23.81-17.565-33.527-46.058-37.469-65.054 1.197-4.786 2.714-10.485 4.692-17.407z" />
<glyph unicode="&#xe929;" glyph-name="CLOAK-alt" d="M511.84 773.973c-179.399 0-325.356-145.953-325.356-325.361 0-179.394 145.957-325.347 325.356-325.347s325.356 145.953 325.356 325.347c0 179.408-145.953 325.361-325.356 325.361zM626.23 318.72c-17.421 9.081-36.53 16.134-56.868 20.789 39.122 20.717 65.858 61.839 65.858 109.102 0 68.039-55.346 123.389-123.38 123.389-68.030 0-123.385-55.35-123.385-123.389 0-47.263 26.731-88.385 65.858-109.102-20.338-4.651-39.442-11.713-56.868-20.789-36.024 31.757-58.814 78.203-58.814 129.896 0 95.515 77.702 173.213 173.208 173.213 95.502 0 173.204-77.697 173.204-173.213 0.005-51.693-22.789-98.139-58.814-129.896zM706.686 242.924c-9.117 16.387-21.15 31.437-35.618 44.667 41.569 41.104 67.371 98.098 67.371 161.025 0 124.947-101.656 226.599-226.599 226.599s-226.594-101.652-226.594-226.599c0-62.932 25.797-119.926 67.357-161.025-14.463-13.23-26.497-28.28-35.613-44.667-54.56 51.706-88.697 124.775-88.697 205.692 0 156.347 127.196 283.539 283.539 283.539s283.539-127.187 283.539-283.539c0.009-80.921-34.119-153.986-88.683-205.692zM511.844 960c-282.685 0-511.844-229.159-511.844-511.844s229.159-511.844 511.844-511.844 511.844 229.164 511.844 511.844c0.005 282.685-229.159 511.844-511.844 511.844zM511.84 62.758c-212.763 0-385.859 173.1-385.859 385.854 0 212.768 173.095 385.863 385.859 385.863s385.859-173.095 385.859-385.863c0-212.754-173.095-385.854-385.859-385.854z" />
<glyph unicode="&#xe92a;" glyph-name="CLOAK" d="M512.065 960c-282.356 0-512.065-229.71-512.065-512.065 0-282.351 229.71-512.061 512.065-512.061 282.351 0 512.061 229.71 512.061 512.061-0.005 282.356-229.714 512.065-512.061 512.065zM512.065 16.167c-238.077 0-431.772 193.695-431.772 431.767 0 238.082 193.695 431.776 431.772 431.776 238.082 0 431.772-193.695 431.772-431.776-0.005-238.077-193.69-431.767-431.772-431.767zM512.065 677.798c-126.744 0-229.859-103.115-229.859-229.863 0-68.594 30.244-130.239 78.059-172.386 23.115 12.056 48.478 21.417 75.462 27.594-51.928 27.499-87.401 82.064-87.401 144.788 0 90.286 73.457 163.739 163.739 163.739 90.286 0 163.735-73.453 163.735-163.739 0-62.729-35.464-117.293-87.397-144.788 26.989-6.182 52.352-15.538 75.462-27.594 47.81 42.147 78.063 103.788 78.063 172.386-0.005 126.749-103.119 229.863-229.863 229.863zM512.065 824.207c-207.48 0-376.277-168.787-376.277-376.272 0-107.395 45.299-204.351 117.704-272.968 12.092 21.746 28.064 41.718 47.259 59.27-55.152 54.547-89.397 130.189-89.397 213.698 0 165.812 134.899 300.711 300.711 300.711s300.702-134.899 300.702-300.711c0-83.509-34.245-159.152-89.401-213.698 19.204-17.552 35.175-37.523 47.272-59.27 72.401 68.617 117.695 165.572 117.695 272.968 0 207.485-168.797 376.272-376.268 376.272z" />
<glyph unicode="&#xe92b;" glyph-name="DAO-alt" d="M358.942 250.695h163.894c88.042 0 169.764 45.601 169.764 197.305 0 151.252-100.233 200.466-167.055 200.466h-167.055v-183.309h-38.377v-33.411h38.377v-181.051zM410.413 431.746h101.587v33.411h-101.587v133.644h114.229c45.601 0 114.229-36.571 114.229-150.349s-55.986-148.092-116.035-148.092h-112.423v131.386zM512 960c-282.638 0-512-229.362-512-512s229.362-512 512-512 512 229.362 512 512c0 282.638-229.362 512-512 512zM767.549 192.451h-511.097v511.097h511.097v-511.097z" />
<glyph unicode="&#xe92c;" glyph-name="DAO" d="M537.284 750.053h-228.91v-267.739h203.626v-67.273h-203.626v-262.321h224.847c120.55 0 232.522 68.628 232.522 296.183 0.451 227.556-137.256 301.15-228.459 301.15zM0 960v-1024h1024v1024h-1024zM534.123 52.938h-328.691v362.102h-76.303v67.273h76.303v367.069h334.109c133.644 0 334.109-97.975 334.109-401.383s-162.991-395.062-339.527-395.062z" />
<glyph unicode="&#xe92d;" glyph-name="DASH-alt" d="M418.505 518.669h-372.47l-43.1-140.101h372.47zM1010.991 698.637c-20.496 39.867-62.647 54.623-94.54 54.623h-695.957l-47.078-152.577h623.669l-93.935-305.362h-628.641l-47.083-152.577h668.431c65.311 0 82.768 11.429 129.471 38.77s83.147 75.178 102.903 132.131c19.76 56.953 67.958 217.559 82.759 271.094 14.815 53.531 20.505 74.031 0 113.898z" />
<glyph unicode="&#xe92e;" glyph-name="DASH" d="M511.998 960c-282.766 0-511.998-229.231-511.998-511.998 0-282.771 229.231-512.002 512.002-512.002s512.002 229.231 512.002 512.002c-0.005 282.766-229.236 511.998-512.007 511.998zM255.403 486.772h204.396l-23.652-76.871h-204.387l23.643 76.871zM784.921 523.026c-8.132-29.378-34.57-117.506-45.421-148.761-10.837-31.256-30.836-57.5-56.47-72.505-25.63-15.005-35.207-21.277-71.033-21.277h-366.794l25.833 83.725h344.958l51.539 167.564h-342.226l25.837 83.721h381.903c17.497 0 40.621-8.092 51.873-29.978 11.248-21.859 8.123-33.112 0-62.489z" />
<glyph unicode="&#xe92f;" glyph-name="DCR-alt" d="M512.013 960c-282.776 0-512.013-229.237-512.013-512.009 0-282.781 229.237-512.018 512.013-512.018s512.015 229.237 512.015 512.018c0 282.773-229.238 512.009-512.015 512.009zM407.642 232.414c-96.493 0-174.719 78.217-174.719 174.712 0 73.2 45.033 135.901 108.894 161.888l-108.878 94.52h124.587l188.198-163.376h-138.082c-51.288 0-93.040-41.727-93.040-93.033 0-51.289 41.746-93.035 93.040-93.035h43.989l94.091-81.677h-138.080zM791.080 232.414h-124.59l-188.196 163.346h138.092c51.3 0 93.030 41.753 93.030 93.056 0 51.305-41.73 93.040-93.030 93.040h-43.989l-94.103 81.677h138.092c96.486 0 174.703-78.238 174.703-174.719 0-73.203-45.026-135.89-108.888-161.877l108.88-94.523z" />
<glyph unicode="&#xe930;" glyph-name="DCR" d="M1024.002 522.921c0 177.017-143.5 320.546-320.507 320.546h-253.342l172.629-149.845h80.712c94.108 0 170.673-76.575 170.673-170.702 0-94.114-76.564-170.709-170.673-170.709h-253.34l345.257-299.679h228.571l-199.746 173.408c117.161 47.686 199.766 162.7 199.766 296.98zM320.531 202.378c-94.103 0-170.69 76.585-170.69 170.692 0 94.126 76.597 170.681 170.69 170.681h253.32l-345.257 299.717h-228.573l199.749-173.408c-117.161-47.682-199.77-162.71-199.77-296.992 0-177.036 143.507-320.536 320.531-320.536h253.328l-172.627 149.845h-80.701z" />
<glyph unicode="&#xe931;" glyph-name="DGB-alt" d="M511.722 960c-282.613 0-511.722-229.109-511.722-511.722 0-282.617 229.109-511.727 511.727-511.727s511.727 229.105 511.727 511.727c-0.005 282.613-229.109 511.722-511.731 511.722zM787.273 480.513c-4.981-66.147-83.649-206.699-238.271-235.020l-14.892-138.272-48.898 5.274 13.677 127.020c-13.912-1.106-27.359-1.865-40.364-2.344l-12.684-117.709-48.902 5.279 12.083 112.006c-99.787 1.969-161.034 20.292-161.034 20.292l157.047 296.814 116.485-21.566-123.394-244.191c129.173-8.557 200.188 54.352 239.87 121.66 39.677 67.321 1.747 136.33-51.761 147.547-53.504 11.212-321.843 53.495-321.843 53.495l66.431 75.074s74.613-13.172 157.874-28.303l12.788 118.675 48.902-5.27-13.181-122.287c13.293-2.447 26.488-4.89 39.325-7.283l13.217 122.594 48.902-5.27-13.641-126.622c109.635-22.455 167.361-83.626 162.263-151.593z" />
<glyph unicode="&#xe932;" glyph-name="DGB" d="M676.473 738.906l20.925 194.232-75.011 8.083-20.279-188.059c-19.678 3.676-39.93 7.419-60.322 11.171l20.22 187.594-75.024 8.074-19.62-182.054c249.925-36.24 167.804-21.086 85.617-6.119l-327.786 49.535-101.909-115.157s411.642-64.864 493.71-82.068c82.077-17.204 140.268-123.064 79.409-226.332-60.868-103.255-169.799-199.763-367.964-186.646l189.283 374.597-178.685 33.085-240.908-455.315s93.953-28.118 247.018-31.13l-18.522-171.822 75.020-8.092 19.448 180.564c19.949 0.732 40.576 1.892 61.92 3.594l-20.988-194.846 75.015-8.096 22.853 212.118c237.178 43.443 357.876 259.051 365.508 360.527 7.821 104.253-80.741 198.093-248.928 232.564z" />
<glyph unicode="&#xe933;" glyph-name="DGD" d="M294.434 583.588h141.239v-45.976h-141.239zM646.626 373.389h-329.19v-167.519h328.752c45.606 0 85.613 38.187 85.613 84.281-0.005 44.536-37.42 83.238-85.175 83.238zM511.736 960c-282.626 0-511.736-229.118-511.736-511.74 0-282.631 229.109-511.74 511.736-511.74 282.622 0 511.736 229.109 511.736 511.74 0 282.622-229.114 511.74-511.736 511.74zM527.639 731.396h246.34v-49.273h-193.79v-144.512h141.234v45.976h-98.536v49.273h151.091v-144.521h-246.34v243.058zM247.514 728.723h154.288v-59.216h-154.288v59.216zM241.893 632.86h193.79v98.536h55.834v-243.058h-249.623v144.521zM654.122 143.471h-405.659v292.312h405.659c78.736 0 142.788-66.007 142.788-146.156s-64.052-146.156-142.788-146.156z" />
<glyph unicode="&#xe934;" glyph-name="DGX" d="M294.592 583.403h141.306v-46.012h-141.306zM511.998 960c-282.766 0-511.998-229.231-511.998-511.998 0-282.775 229.231-512.002 511.998-512.002 282.775 0 512.002 229.227 512.002 512.002 0 282.766-229.231 511.998-512.002 511.998zM527.919 731.279h246.453v-49.295h-193.884v-144.589h141.311v46.012h-98.59v49.282h151.164v-144.589h-246.453v243.18zM247.645 728.615h154.365v-59.252h-154.365v59.252zM242.019 632.689h193.884v98.59h55.865v-243.175h-249.749v144.585zM781.209 143.661h-111.775l-157.070 107.861-157.065-107.861h-111.78l212.958 146.242-212.958 146.233h111.775l157.065-107.852 157.070 107.852h111.775l-212.958-146.233 212.962-146.242z" />
<glyph unicode="&#xe935;" glyph-name="DMD-alt" d="M197.023 574.2l-189.193-36.557c-4.981-26.88-7.83-57.809-7.83-89.403 0-0.080 0-0.161 0-0.241v0.012c0-31.996 2.962-63.311 8.575-93.691l188.452-32.918-0.005 252.797zM511.984 490.262l118.336 234.654h-236.677zM235.074 566.352v-236.682l234.663 118.341zM775.863 602.394l-109.5 109.504-111.396-220.905zM328.883 736.986l-176.491 70.572 70.306-176.748zM871.531 807.608l-176.748-70.319 106.181-106.181zM788.89 329.67v236.682l-234.65-118.341zM871.581 88.469l-70.319 176.748-106.185-106.185zM675.457 770.554l168.643 67.091c-57.694 49.223-126.442 85.861-202.012 105.657l33.369-172.748zM1023.973 448.011c0 32.001-2.962 63.311-8.575 93.691l-188.448 32.918v-252.788l189.193 36.557c4.981 26.877 7.83 57.803 7.83 89.394 0 0.081 0 0.162 0 0.242v-0.013zM834.288 611.954l171.953-30.032c-20.031 74.112-56.262 141.546-104.686 198.282l-67.267-168.25zM329.181 158.734l-106.181 106.176-70.563-176.491zM834.527 284.543l67.091-168.643c49.223 57.685 85.857 126.437 105.657 202.008l-172.748-33.365zM844.177 58.441l-168.246 67.267-30.037-171.957c74.103 20.031 141.546 56.262 198.282 104.691zM775.867 293.633l-220.9 111.401 111.396-220.896zM385.38 762.968h252.793l-36.557 189.202c-26.891 4.981-57.831 7.83-89.437 7.83-0.069 0-0.137 0-0.206 0h0.011c-32.010 0-63.316-2.962-93.691-8.588l-32.913-188.443zM638.588 133.050h-252.788l36.557-189.188c26.879-4.981 57.806-7.83 89.399-7.83 0.082 0 0.163 0 0.245 0h-0.013c32.001 0 63.307 2.962 93.691 8.575l32.909 188.443zM511.984 405.76l-118.336-234.65h236.673zM179.801 837.573l168.237-67.262 30.041 171.957c-74.112-20.035-141.546-56.262-198.278-104.695zM248.11 602.385l220.891-111.392-111.392 220.887zM189.446 611.48l-67.095 168.643c-49.218-57.689-85.857-126.442-105.657-202.008l172.752 33.365zM248.106 293.624l109.495-109.5 111.401 220.909zM348.507 125.473l-168.634-67.091c57.685-49.223 126.442-85.857 202.012-105.657l-33.378 172.748zM189.685 284.073l-171.953 30.032c20.026-74.103 56.262-141.55 104.686-198.282l67.267 168.25z" />
<glyph unicode="&#xe936;" glyph-name="DMD" d="M511.912 960c-282.721 0-511.912-229.191-511.912-511.912s229.191-511.912 511.912-511.912c282.717 0 511.912 229.191 511.912 511.912s-229.195 511.912-511.912 511.912zM813.865 529.89l-105.056 18.346 41.1 102.785c28.978-33.748 51.039-74.332 63.437-118.938l0.52-2.193zM688.457 559.936l-64.864 64.869 107.978 42.955-43.114-107.824zM511.916 473.894l-72.297 143.352h144.589l-72.292-143.352zM606.231 609.294l66.892-66.896-134.949-68.057 68.057 134.953zM485.659 474.341l-134.949 68.052 66.896 66.892 68.052-134.944zM486.106 448.084l-143.356-72.297v144.594l143.356-72.297zM485.659 421.826l-68.061-134.953-66.887 66.892 134.949 68.061zM511.916 422.269l72.292-143.347h-144.589l72.297 143.347zM538.174 421.826l134.949-68.052-66.892-66.887-68.057 134.94zM537.731 448.084l143.347 72.297v-144.589l-143.347 72.292zM714.805 686.111l-103.024-40.987-20.387 105.54c47.691-12.769 89.080-35.077 123.829-64.902l-0.417 0.349zM454.679 755.617c17.224 3.338 37.033 5.247 57.287 5.247 19.334 0 38.261-1.74 56.634-5.072l-1.924 0.289 22.329-115.586h-154.433l20.107 115.121zM430.11 750.027l-18.351-105.047-102.781 41.091c33.747 28.98 74.331 51.041 118.939 63.437l2.193 0.52zM400.060 624.624l-64.869-64.864-42.951 107.973 107.82-43.109zM273.889 650.976l40.987-103.024-105.535-20.383c12.769 47.688 35.075 89.076 64.898 123.824l-0.35-0.417zM199.136 448.084c0 18.68 1.648 36.977 4.786 54.75l115.582 22.333v-154.428l-115.126 20.103c-3.335 17.198-5.242 36.976-5.242 57.199 0 0.015 0 0.030 0 0.045v-0.002zM209.968 366.282l105.052-18.351-41.091-102.785c-28.978 33.75-51.040 74.335-63.441 118.942l-0.521 2.194zM335.376 336.227l64.864-64.864-107.978-42.955 43.114 107.82zM309.024 210.052l103.020 40.987 20.392-105.535c-47.69 12.769-89.079 35.075-123.829 64.898l0.417-0.35zM569.154 140.545c-17.199-3.332-36.979-5.238-57.204-5.238-0.012 0-0.024 0-0.036 0h0.002c-0.027 0-0.060 0-0.093 0-19.318 0-38.23 1.74-56.588 5.071l1.921-0.289-22.329 115.586h154.428l-20.103-115.13zM593.718 146.135l18.351 105.056 102.785-41.1c-33.75-28.977-74.335-51.037-118.942-63.436l-2.194-0.52zM623.769 271.543l64.86 64.864 42.964-107.978-107.824 43.114zM749.948 245.195l-40.987 103.024 105.531 20.387c-12.767-47.69-35.071-89.080-64.894-123.829l0.35 0.417zM819.911 393.329l-115.582-22.333v154.428l115.126-20.103c3.332-17.199 5.238-36.979 5.238-57.204 0-0.012 0-0.024 0-0.036v0.002c0-18.68-1.644-36.972-4.782-54.754z" />
<glyph unicode="&#xe937;" glyph-name="DOGE-alt" d="M448.113 960.244h-294.326v-455.947h-120.883v-111.676h120.888v-455.947h342.948s482.214-40.4 482.214 503.247c0 534.783-461.199 520.324-530.841 520.324zM488.852 125.884h-141.912v266.732h212.863v111.676h-212.863v266.741h135.337c50.591 0 305.163-20.36 305.551-334.812 0.397-314.447-262.524-310.338-298.977-310.338z" />
<glyph unicode="&#xe938;" glyph-name="DOGE" d="M525.318 621.928h-73.313v-144.494h115.316v-60.503h-115.316v-144.494h76.866c19.755 0 162.186-2.231 161.969 168.119-0.217 170.341-138.123 181.372-165.523 181.372zM512.996 960c-283.322 0-512.996-229.674-512.996-512.991 0-283.322 229.674-512.996 512.996-512.996 283.313 0 512.987 229.674 512.987 512.996 0 283.317-229.674 512.991-512.987 512.991zM533.153 169.941h-185.788v246.986h-65.488v60.503h65.483v247h159.45c37.722 0 287.562 7.834 287.562-281.877 0-294.502-261.219-272.611-261.219-272.611z" />
<glyph unicode="&#xe939;" glyph-name="EMC-alt" d="M374.597 683.93l-137.274-236.027 137.274-236.036h272.76l139.089 236.691-141.415 235.372h-270.435zM639.988 321.832h-257.683v56.023h201.651v145.614h-46.274v-103.589h-155.377v56.041h99.335v47.548h-99.335v56.041h257.683v-257.679zM512.102 960c-282.825 0-512.102-229.276-512.102-512.097 0-282.825 229.276-512.102 512.102-512.102s512.097 229.272 512.097 512.102c0 282.821-229.272 512.097-512.097 512.097zM685.251 145.648h-348.737l-175.8 302.255 175.804 302.255h345.978l180.997-301.221-178.243-303.289z" />
<glyph unicode="&#xe93a;" glyph-name="EMC" d="M760.989 888.823h-504.597l-256.392-440.825 256.392-440.821h508.62l259.941 442.333-263.964 439.313zM709.734 103.758h-397.793l-200.21 344.24 200.21 344.235h394.393l206.261-343.273-202.861-345.202zM323.175 558.202h144.874v-69.344h-144.874v-81.721h226.603v151.064h67.483v-212.353h-294.087v-81.725h375.816v375.812h-375.816z" />
<glyph unicode="&#xe93b;" glyph-name="ERC-alt" d="M582.434 517.079l82.624 27.541c-32.056 50.568-88.494 83.979-153.058 83.979-83.076 0-153.058-55.986-174.279-132.741l260.966 83.076-16.254-61.855zM512 960c-282.638 0-512-229.362-512-512s229.362-512 512-512 512 229.362 512 512c0 282.638-229.362 512-512 512zM349.009 369.891c29.347-60.952 91.203-102.942 163.443-102.942 69.079 0 129.58 38.829 159.831 96.169l69.079 22.575c-27.541-100.684-119.647-174.73-228.91-174.73-96.621 0-179.697 57.792-216.72 140.416l-35.217-12.19c41.989-97.524 139.062-165.7 251.937-165.7 134.998 0 246.97 97.072 269.996 225.298l57.34 18.511c-15.351-167.506-156.219-298.441-327.337-298.441-153.961 0-282.638 105.651-318.758 247.873l290.765 94.363-14.899-68.628 313.34 103.393c-23.026 128.677-134.998 226.201-270.448 226.201-146.286 0-265.481-114.229-274.060-257.806l38.377 12.19c14.448 117.39 114.229 208.141 235.683 208.141 106.554 0 196.854-69.982 226.653-167.055l-227.104-74.497 18.963 63.661-343.591-110.166c-2.709 16.705-4.063 33.411-4.063 50.568 0 181.503 147.189 328.691 328.691 328.691 176.085 0 319.661-138.159 328.691-311.986l-436.6-142.222 13.545 71.337-68.628-23.026z" />
<glyph unicode="&#xe93c;" glyph-name="ERC" d="M512.451 19.979c-176.085 0-326.885 106.102-392.353 257.806l55.083 18.963c57.792-129.129 186.921-218.977 337.27-218.977 170.667 0 313.792 115.584 356.684 272.254l-107.457-34.765c-47.407-88.945-141.319-149.898-249.228-149.898-111.972 0-209.044 65.467-254.194 160.282l107.005 37.474-21.22-111.069 679.958 221.686c-13.545 270.899-237.489 486.265-511.549 486.265-283.090 0-512.451-229.362-512.451-512.451 0-26.638 2.257-53.277 5.869-79.012l535.478 171.57-29.347-99.33 353.524 116.035c-46.956 150.349-187.372 260.063-353.072 260.063-188.727 0-344.494-141.771-366.617-324.628l-60.049-18.963c13.545 223.944 199.563 401.834 427.118 401.834 210.399 0 385.58-152.155 421.249-352.621l-488.974-160.282 23.026 106.554-452.402-146.737c55.986-222.138 257.354-386.483 496.649-386.483 266.836 0 485.813 204.078 510.194 464.593l-89.397-28.896c-36.12-199.563-210.85-351.266-420.797-351.266zM512.451 729.735c100.233 0 188.275-52.374 238.392-130.935l-128.677-43.344 25.284 97.072-406.349-129.58c32.508 119.196 141.771 206.787 271.351 206.787z" />
<glyph unicode="&#xe93d;" glyph-name="ETC-alt" d="M512 960c-282.638 0-512-229.362-512-512s229.362-512 512-512 512 229.362 512 512c0 282.638-229.362 512-512 512zM513.354 787.527l194.145-306.116-194.145 86.688-200.014-84.43 200.014 303.859zM514.709 526.561l202.723-90.3-202.723-113.326-208.593 115.584 208.593 88.042zM515.612 108.473l-201.82 281.284 200.014-115.584 203.626 115.584-201.82-281.284z" />
<glyph unicode="&#xe93e;" glyph-name="ETC" d="M212.656 501.277l302.053 127.323 292.571-130.483-293.023 461.884-301.601-458.723zM213.559 359.958l301.15-174.73 307.471 174.73-304.762-423.958-303.859 423.958zM516.063 566.293l-314.243-132.289 314.243-174.73 305.665 170.667-305.665 136.353z" />
<glyph unicode="&#xe93f;" glyph-name="ETH-alt" d="M511.659 960c-282.581 0-511.659-229.078-511.659-511.659s229.078-511.659 511.659-511.659 511.659 229.078 511.659 511.659-229.078 511.659-511.659 511.659zM505.026 109.353l-202.202 286.027 202.202-118.386v-167.641zM505.026 318.915l-203.57 119.244 203.57 89.171v-208.415zM505.026 541.657l-197.014-86.29 197.014 331.010v-244.719zM518.148 786.476l199.782-332.337-199.782 87.518v244.819zM518.148 109.353v167.641l202.202 118.386-202.202-286.027zM518.148 318.91v208.415l203.719-89.234-203.719-119.181z" />
<glyph unicode="&#xe940;" glyph-name="ETH" d="M508.227 251.074v316.185l-308.834-135.283zM508.227 588.997v371.256l-298.882-502.172zM528.136 960.406v-371.409l303.081-132.768zM528.136 567.26v-316.194l309.051 180.821zM508.227-66.84v254.315l-306.757 179.602zM528.136-66.84l306.757 433.917-306.757-179.602z" />
<glyph unicode="&#xe941;" glyph-name="FC2-alt" d="M718.688 653.315h-214.159l13.316 89.961h251.754l29.992 216.656h-541.637l-124.595-870.353h287.706l50.117 338.469h216.132l31.373 225.267zM252.843 142.126h-66.951l112.977 783.868h66.946l-112.972-783.868zM860.956 127.157c-3.829 11.722-7.803 23.842-7.803 46.378v73.819c0 5.852 0 16.734-85.247 99.85-2.417 2.357-5.725 3.811-9.372 3.811-3.762 0-7.162-1.547-9.6-4.039l-0.002-0.002c-2.358-2.417-3.813-5.724-3.813-9.372 0-3.766 1.551-7.171 4.049-9.609l0.003-0.003c33.053-32.24 70.942-72.076 77.142-82.845v-71.611c0-26.808 4.854-41.646 9.139-54.718 3.323-10.182 5.956-18.206 5.956-31.166 0-13.163-10.941-16.648-16.707-16.648-3.996 0-7.563 1.305-10.042 3.671-2.98 2.813-4.488 7.193-4.488 12.977v132.145c0 22.121-16.838 45.005-45.010 45.005v26.524c-0.003 7.218-5.854 13.068-13.072 13.068-0.002 0-0.003 0-0.005 0h-177.443c-7.218 0-13.070-5.85-13.072-13.067v0-321.094h-11.194c-5.043-0.003-9.13-4.091-9.13-9.135 0-0.002 0-0.003 0-0.005v0-15.953c0-5.044 4.086-9.13 9.13-9.13h225.98c0.001 0 0.003 0 0.005 0 5.040 0 9.126 4.086 9.126 9.126 0 0.002 0 0.003 0 0.005v0 15.953c0 0.001 0 0.003 0 0.005 0 5.043-4.087 9.132-9.13 9.135h-11.194v267.73c14.915 0 18.166-13.108 18.166-18.161v-132.145c0-16.743 6.981-26.894 12.851-32.453 7.496-7.107 17.619-11.027 28.52-11.027 21.114 0 43.552 15.249 43.552 43.479 0.005 17.231-3.698 28.551-7.292 39.501zM734.501 171.937c-0.003-5.041-4.089-9.126-9.13-9.126h-123.994c-0.003 0-0.006 0-0.009 0-5.038 0-9.121 4.084-9.121 9.121 0 0.002 0 0.003 0 0.005v0 93.804c0 5.035 4.082 9.126 9.13 9.126h123.994c5.039 0 9.13-4.091 9.13-9.126v-93.804z" />
<glyph unicode="&#xe942;" glyph-name="FC2" d="M317.919 227.54h41.822l70.576 489.687h-41.827zM654.934 310.462h-77.458c-3.156 0-5.708-2.56-5.708-5.708v-58.601c0-3.143 2.547-5.703 5.708-5.703h77.458c3.147 0 5.703 2.556 5.703 5.703v58.601c-0.005 3.149-2.555 5.7-5.702 5.708h-0.001zM512.652 958.695c-282.41 0-511.348-228.938-511.348-511.348s228.938-511.348 511.348-511.348 511.348 228.938 511.348 511.348-228.938 511.348-511.348 511.348zM496.144 406.158l-31.315-211.44h-179.733l77.833 543.71h338.365l-18.73-135.351h-157.269l-8.326-56.199h133.793l-19.602-140.719h-135.016zM716.99 166.347c-6.809 0-13.135 2.438-17.813 6.886-3.671 3.472-8.033 9.812-8.033 20.261v82.56c0 3.161-2.027 11.352-11.347 11.352v-167.261h6.994c3.147 0 5.712-2.551 5.712-5.708v-9.97c0-3.152-2.56-5.703-5.712-5.703h-141.171c-0.003 0-0.006 0-0.009 0-3.151 0-5.705 2.553-5.708 5.703v0 9.97c0 3.152 2.556 5.708 5.717 5.708h6.99v200.599c0 4.502 3.658 8.159 8.168 8.159h110.85c4.515 0 8.173-3.658 8.173-8.159v-16.572c17.597 0 28.118-14.296 28.118-28.118v-82.56c0-3.612 0.944-6.34 2.804-8.096 1.553-1.477 3.779-2.294 6.276-2.294 3.599 0 10.44 2.172 10.44 10.39 0 8.11-1.644 13.113-3.725 19.48-2.673 8.164-5.712 17.43-5.712 34.182v44.726c-3.87 6.742-27.535 31.622-48.189 51.761-1.561 1.525-2.529 3.651-2.529 6.003 0 2.28 0.91 4.348 2.386 5.86l-0.002-0.002c1.525 1.555 3.649 2.518 5.997 2.518 2.278 0 4.345-0.907 5.858-2.38l-0.002 0.002c53.251-51.932 53.251-58.723 53.251-62.381v-46.107c0-14.084 2.488-21.652 4.872-28.976 2.249-6.836 4.565-13.912 4.565-24.69-0.014-17.624-14.034-27.142-27.219-27.142z" />
<glyph unicode="&#xe943;" glyph-name="FCT-alt" d="M511.998 960c-282.766 0-511.998-229.231-511.998-512.002s229.231-511.998 512.002-511.998 512.002 229.231 512.002 511.998-229.236 512.002-512.007 512.002zM183.232 554.978c10.444-34.525 37.338-73.313 105.494-73.313 147.050 0 227.47 119.479 227.47 119.479l-9.072 3.915 68.359 93.51 6.435-116.729-11.948 2.763s-94.21-157.165-284.455-157.165c-67.113 0-96.563 33.238-108.344 71.159 0.521 20.283 2.703 39.703 6.42 58.573l-0.36-2.193zM178.974 453.362c18.947-23.133 46.965-48.067 82.994-54.678 40.779-7.469 127.85-5.238 221.6 56.335 93.741 61.577 128.672 138.326 128.672 138.326l-9.081 3.901 68.364 93.519 6.435-116.724-11.948 2.754s-27.576-66.625-111.211-139.694c-83.64-73.078-208.636-109.834-299.162-88.236-28.506 6.8-49.489 24.031-64.864 44.459-5.244 17.208-9.397 37.58-11.665 58.518l-0.134 1.519zM225.741 313.171c-8.995 14.716-17.538 31.839-24.624 49.699l-0.811 2.319c21.471-23.318 53.35-46.599 97.15-51.25 73.936-7.866 134.646 8.733 227.47 64.336 92.829 55.599 125.001 112.119 125.001 112.119l-10.453 4.723 68.359 95.461 5.969-118.553-9.189 3.21s-53.761-81.788-128.672-129.133c-74.907-47.331-162.213-92.364-264.235-80.425-35.41 4.15-63.876 23.711-85.965 47.493zM256.324 269.949c29.269-16.49 67.009-30.231 111.559-30.231 76.857 0 152.681 32.746 219.202 76.857 66.513 44.116 121.66 115.108 121.66 115.108l-12.061 4.488 69.281 93.054 5.857-118.558-13.442 5.857s-53.418-75.819-130.627-129.932c-77.201-54.104-148.202-85.477-246.083-85.477-28.154 0-56.154 10.3-81.77 24.957-15.929 13.457-30.192 27.815-43.124 43.322l-0.45 0.555zM765.612 262.806l-5.175 3.111s-63.388-67.971-145.438-100.302c-29.59-11.659-58.642-17.71-85.509-20.301-2.358-0.058-5.136-0.091-7.921-0.091-26.41 0-52.13 2.96-76.844 8.566l2.317-0.442c39.777-1.269 96.554 3.468 154.857 30.19 107.531 49.282 138.204 93.407 138.204 93.407l-5.509 3.793 33.423 29.287-2.407-47.218zM842.935 441.234s-52.393-113.049-152.568-185.201c-100.184-72.152-176.468-95.592-235.287-95.592-19.827 0-40.093 3.359-59.757 8.679-23.704 9.453-44.033 20.176-63.040 32.738l1.282-0.796c26.876-8.606 59.044-15.343 93.944-15.343 93.285 0 194.354 59.848 255.972 113.053 80.876 69.849 115.338 155.778 115.338 155.778l-15.623 6.439 68.016 93.75 5.974-116.729-14.251 3.224z" />
<glyph unicode="&#xe944;" glyph-name="FCT" d="M163.545 426.518c287.192 0 429.406 237.251 429.406 237.251l18.035-4.168-9.708 176.202-103.192-141.166 13.7-5.906s-121.398-180.361-343.382-180.361c-102.889 0-143.483 58.556-159.251 110.669-5.071-25.175-8.367-54.491-9.139-84.435l-0.014-0.672c17.782-57.233 62.236-107.414 163.545-107.414zM118.454 307.892c136.665-32.597 325.347 22.884 451.608 133.192 126.252 110.308 167.875 210.894 167.875 210.894l18.039-4.163-9.713 176.197-103.196-141.171 13.704-5.893s-52.727-115.848-194.241-208.812c-141.514-92.955-272.959-96.31-334.518-85.030-54.389 9.984-96.68 47.611-125.286 82.542 3.274-31.12 9.297-61.41 17.809-90.648 23.214-30.827 54.89-56.84 97.918-67.109zM601.964 303.738c113.076 71.443 194.237 194.923 194.237 194.923l13.876-4.859-9.013 178.974-103.196-144.111 15.786-7.121s-48.559-85.319-188.687-169.253c-140.128-83.942-231.778-108.989-343.386-97.127-66.12 7.022-114.241 42.174-146.657 77.372 11.929-30.468 24.825-56.317 39.695-80.837l-1.3 2.308c33.347-35.893 76.316-65.429 129.765-71.683 154.008-18.030 285.81 49.95 398.881 121.411zM680.18 213.899c116.548 81.694 197.194 196.142 197.194 196.142l20.288-8.846-8.841 178.983-104.578-140.476 18.206-6.764s-83.247-107.174-183.657-173.768c-100.415-66.603-214.877-116.024-330.901-116.024-67.24 0-124.22 20.744-168.404 45.629 20.209-24.239 41.74-45.913 65.010-65.597l0.772-0.636c38.67-22.126 80.944-37.668 123.434-37.668 147.759 0 254.938 47.331 371.477 129.024zM1017.498 618.677l-102.668-141.514 23.589-9.713s-52.022-129.738-174.12-235.174c-93.005-80.316-245.573-170.661-386.396-170.661-52.691 0-101.245 10.178-141.817 23.169 26.755-17.757 57.442-33.946 89.739-46.982l3.487-1.243c29.685-8.015 60.277-13.086 90.205-13.086 88.801 0 203.949 35.383 355.181 144.282 151.227 108.926 230.315 279.579 230.315 279.579l21.507-4.863-9.022 176.206zM849.794 199.336s-46.301-66.603-208.636-141.004c-88.011-40.35-173.718-47.484-233.76-45.57 33.789-7.798 72.589-12.267 112.433-12.267 4.227 0 8.443 0.050 12.646 0.15l-0.624-0.012c40.553 3.897 84.416 13.045 129.079 30.637 123.863 48.807 219.555 151.408 219.555 151.408l7.807-4.692 3.639 71.276-50.46-44.22 8.322-5.708z" />
<glyph unicode="&#xe945;" glyph-name="FLO-alt" d="M512 960c-282.638 0-512-229.362-512-512s229.362-512 512-512 512 229.362 512 512-229.362 512-512 512zM397.843 668.697c5.901 37.524 59.368 84.715 100.626 116.722 3.228 2.51 7.287 3.869 11.351 4.253 0.045 0.045 0.045 0.095 0.045 0.095 0.736 0.045 1.404 0.095 2.14 0.045 0.722 0.045 1.49 0 2.221-0.045v-0.095c4.109-0.384 8.168-1.743 11.346-4.253 41.308-32.007 94.679-79.197 100.58-116.722 5.996-37.515-6.763-61.688-6.763-61.688-51.358-95.88-63.35-201.77-63.156-231.407-22.042-10.836-66.528-10.836-88.381 0 0 29.636-11.892 135.531-63.142 231.407 0.009 0.005-12.764 24.173-6.867 61.688zM608.368 369.976c2.221-14.1 0 4.158 5.657-24.074-61.941-31.045-142.010-31.045-204.001 0 5.129 24.742 4.154 13.233 5.707 24.074 56.668-29.095 136.163-28.806 192.637 0zM220.584 335.834c-5.608-2.109-7.639 2.239-7.639 2.239s-19.293 40.22-23.546 109.276c-2.56 47.006 3.82 73.206 3.82 73.206s11.798 52.798 52.604 65.075c9.098 3.291 56.668 11.075 80.949 0 29.781-13.586 49.457-25.13 84.611-74.651 35.104-49.498 42.454-133.901 42.454-133.901s-34.671 7.513-41.786 19.884c-7.147 12.439-12.47 31.14-52.943 64.068-20.060 16.344-39.592 5.946-39.592 5.946s-7.928-5.115-8.601-12.466c-0.686-7.319-0.786-23.785-11.509-41.145-34.237-52.916-70.014-74.145-78.823-77.531zM375.896 223.393c-11.414-8.439-29.442-7.545-42.071-5.242-12.466 2.334-19.437 10.552-22.236 17.040-2.763 7.639-2.763 16.146-0.673 26.982 2.032 10.615 3.756 19.022 13.333 43.127 0.93 2.203 3.58 2.109 4.939 0 11.698-16.755 20.015-22.060 20.015-22.060s7.639-7.161 18.173 0c10.457 7.066 36.224 46.134 36.224 46.134l31.668-13.938s-14.787-39.068-30.548-60.903c-15.875-21.771-17.505-22.733-28.824-31.14zM588.737 188.483c-16.687-32.228-62.18-74.971-67.887-79.225-1.976-1.461-4.342-2.516-6.912-2.991l-0.104-0.016v-0.095h-3.567v0.095c-2.691 0.489-5.074 1.544-7.114 3.040l0.048-0.033c-5.757 4.253-51.15 46.997-67.937 79.225-12.565 24.358-21.275 34.91 0 71.743 21.275 36.829 32.594 46.902 32.594 46.902 44.197-5.21 44.197-5.21 88.381 0 0 0 11.22-10.068 32.499-46.902s12.615-47.385 0-71.743zM712.511 235.19c-2.799-6.493-9.766-14.705-22.331-17.040-12.579-2.303-30.657-3.197-41.976 5.242-11.369 8.407-12.949 9.369-28.806 31.14-15.875 21.834-30.661 60.903-30.661 60.903l31.713 13.938s25.722-39.068 36.273-46.134c10.439-7.161 18.173 0 18.173 0s8.312 5.305 19.916 22.060c1.454 2.109 4.059 2.203 4.989 0 9.621-24.106 11.319-32.512 13.396-43.127 2.081-10.836 2.081-19.342-0.686-26.982zM834.7 447.345c-4.298-69.052-23.64-109.276-23.64-109.276s-1.937-4.348-7.545-2.239c-8.809 3.391-44.68 24.616-78.823 77.527-10.728 17.36-10.822 33.826-11.491 41.145-0.686 7.355-8.664 12.466-8.664 12.466s-19.536 10.398-39.596-5.946c-40.522-32.932-46.902-51.633-52.848-64.068-5.996-12.371-41.836-19.884-41.836-19.884s7.26 84.403 42.459 133.901c35.104 49.52 54.83 61.065 84.606 74.651 24.282 11.075 71.852 3.291 80.9 0 40.761-12.276 52.654-65.075 52.654-65.075s6.289-26.196 3.824-73.202z" />
<glyph unicode="&#xe946;" glyph-name="FLO" d="M512.009 960c-282.792 0-511.982-229.231-511.982-511.982 0-282.846 229.19-512.018 511.982-512.018 282.774 0 511.968 229.172 511.968 512.018-0.005 282.751-229.194 511.982-511.968 511.982zM512.009 6.926c-243.214 0-441.092 197.879-441.092 441.092 0 243.223 197.879 441.092 441.092 441.092 243.232 0 441.128-197.865 441.128-441.092-0.005-243.214-197.897-441.092-441.128-441.092zM401.694 337.563c67.052-33.578 153.663-33.578 220.666 0-6.122 30.535-3.72 10.786-6.122 26.038-61.088-31.158-147.076-31.469-208.371 0-1.68-11.721-0.623 0.727-6.172-26.038zM464.254 369.692c23.636-11.721 71.757-11.721 95.6 0-0.208 32.056 12.759 146.602 68.316 250.311 0 0 13.798 26.146 7.314 66.727-6.38 40.59-64.113 91.632-108.798 126.257-3.44 2.714-7.829 4.185-12.276 4.601v0.104c-0.795 0.050-1.625 0.104-2.406 0.050-0.795 0.050-1.522 0-2.316-0.050 0 0 0-0.054-0.050-0.104-4.393-0.415-8.786-1.887-12.276-4.601-44.626-34.625-102.468-85.667-108.847-126.257-6.38-40.581 7.436-66.727 7.436-66.727 55.435-103.714 68.303-218.255 68.303-250.311zM394.741 319.684s-27.871-42.26-39.181-49.904c-11.396-7.748-19.658 0-19.658 0s-8.994 5.739-21.649 23.862c-1.472 2.28-4.339 2.384-5.346 0-10.357-26.074-12.222-35.167-14.421-46.653-2.267-11.721-2.267-20.922 0.727-29.185 3.025-7.021 10.565-15.911 24.051-18.43 13.658-2.492 33.163-3.458 45.511 5.671 12.24 9.093 14.006 10.132 31.176 33.682 17.049 23.618 33.041 65.878 33.041 65.878l-34.251 15.080zM303.791 468.525s21.13 11.247 42.829-6.429c43.782-35.619 49.538-55.85 57.268-69.301 7.694-13.382 45.2-21.509 45.2-21.509s-7.955 91.298-45.922 144.836c-38.025 53.566-59.309 66.050-91.523 80.751-26.264 11.983-77.721 3.562-87.559 0-44.143-13.279-56.902-70.393-56.902-70.393s-6.899-28.341-4.131-79.184c4.596-74.696 25.469-118.202 25.469-118.202s2.199-4.705 8.267-2.42c9.527 3.666 48.225 26.629 85.261 83.861 11.599 18.778 11.707 36.589 12.448 44.509 0.722 7.946 9.296 13.482 9.296 13.482zM559.854 295.615c-47.791-5.635-47.791-5.635-95.6 0 0 0-12.24-10.895-35.258-50.73-23.013-39.84-13.59-51.25 0-77.604 18.155-34.86 67.26-81.094 73.486-85.695 2.155-1.581 4.733-2.722 7.53-3.234l0.113-0.017v-0.104h3.851v0.104c2.892 0.53 5.452 1.67 7.64 3.286l-0.050-0.035c6.172 4.601 55.381 50.834 73.432 85.695 13.644 26.349 23.013 37.763 0 77.604-23.008 39.84-35.145 50.73-35.145 50.73zM715.143 293.646c-1.002 2.384-3.82 2.28-5.395 0-12.552-18.123-21.546-23.862-21.546-23.862s-8.366-7.748-19.658 0c-11.414 7.644-39.235 49.904-39.235 49.904l-34.305-15.080s15.997-42.26 33.167-65.878c17.152-23.55 18.864-24.589 31.158-33.682 12.24-9.129 31.799-8.163 45.403-5.671 13.59 2.524 21.13 11.409 24.155 18.43 2.989 8.267 2.989 17.464 0.745 29.185-2.248 11.482-4.082 20.575-14.489 46.653zM856.927 526.475s-12.863 57.11-56.957 70.393c-9.789 3.562-61.246 11.983-87.51 0-32.214-14.696-53.548-27.18-91.519-80.751-38.075-53.539-45.926-144.836-45.926-144.836s38.766 8.127 45.249 21.509c6.434 13.455 13.333 33.682 57.164 69.301 21.699 17.681 42.829 6.429 42.829 6.429s8.628-5.531 9.373-13.486c0.727-7.919 0.831-25.726 12.43-44.509 36.933-57.232 75.734-80.195 85.261-83.861 6.068-2.28 8.163 2.42 8.163 2.42s20.922 43.506 25.573 118.202c2.664 50.848-4.131 79.188-4.131 79.188z" />
<glyph unicode="&#xe947;" glyph-name="FRK-alt" d="M417.792-64v159.445h123.768v133.007h-123.768v181.042h380.549v133.012h-380.549v221.677h511.7v195.817h-709.373v-731.548h-125.611v-133.007h125.611v-159.445z" />
<glyph unicode="&#xe948;" glyph-name="FRK" d="M379.063 176.962v68.477h-69.497v73.579h69.497v404.733h392.469v-108.339h-283.105v-122.644h210.537v-73.584h-210.537v-100.171h68.481v-73.579h-68.481v-68.477h458.101c49.137 78.591 77.557 171.474 77.557 270.99 0 282.807-229.245 512.052-512.038 512.052s-512.047-229.245-512.047-512.047c0-99.52 28.429-192.399 77.557-270.99h301.506zM141.884 94.176c93.226-97.516 224.594-158.262 370.167-158.262 145.556 0 276.923 60.746 370.154 158.262h-740.321z" />
<glyph unicode="&#xe949;" glyph-name="FTC-alt" d="M946.84 959.932c-9.577 2.822-148.924-82.529-213.816-131.734-64.878-49.209-185.942-145.226-190.511-155.246-4.574-10.011-5.008-28.086-10.444-73.588-5.446-45.507-24.383-65.32-24.383-65.32s-9.148 6.963-14.16 21.773c-5.012 14.806-8.272 56.181-11.32 57.044-3.043 0.876-84.629-75.124-84.629-75.124s-5.802-38.016-18.283-113.505c-12.49-75.485-31.649-107.052-35.785-107.49s-13.068 29.174-16.111 59.229c-3.043 30.041-0.867 101.245-4.136 103.417-3.269 2.181-46.152-42.964-46.152-42.964s5.798-53.707 10.151-123.963c4.357-70.251-2.316-118.517-9.501-123.091-7.189-4.574-18.066 12.63-33.97 50.302-15.89 37.668-16.978 67.492-24.379 70.107-7.41 2.614-22.862-34.182-27.431-70.771-4.574-36.571-1.093-92.097-1.093-92.097s-21.34 39.623-34.841 60.313c-13.501 20.681-44.852 62.056-48.762 59.008-3.933-3.048 13.271-36.58 23.72-66.413 10.453-29.834 24.388-74.031 24.388-74.031s-36.363 35.491-52.908 47.25c-16.554 11.758-64.661 38.973-68.585 30.479-3.915-8.485 29.174-33.536 43.552-47.895 14.373-14.368 45.073-47.245 45.073-47.245s-15.465-16.116-19.38-38.106c-3.924-21.99 5.658-42.671 5.658-42.671s25.476 52.691 40.066 53.553c14.589 0.871 20.031-28.958 15.678-48.546-4.357-19.602-68.585-86.954-65.325-96.030 3.269-9.072 85.134 77.011 92.829 93.411 16.256-19.742 102.767-53.413 107.707-51.666 4.931 1.734-33.392 28.149-48.487 42.382-15.091 14.219-32.507 56.317-26.411 61.826 6.096 5.522 13.93-28.149 57.766-49.345 43.84-21.196 110.904-25.837 112.060-22.929 1.16 2.908-51.386 18.568-82.448 38.314-31.062 19.742-46.744 60.674-46.744 60.674s45.001-8.99 157.648-15.095c112.642-6.1 183.472 32.222 183.472 32.222s-98.712 1.165-162.859 4.064c-64.169 2.903-156.189 11.027-156.189 11.027s24.311 36.151 89.054 49.205c64.729 13.072 168.458 5.956 177.737 7.405 9.297 1.454 158.221 211.635 158.221 211.635s-92.029-3.766-85.645 11.912c14.197 34.846 93.772 26.998 105.671 28.154 11.898 1.17 49.060 55.743 92.616 106.84 43.542 51.097 162.574 183.187 168.666 268.538 6.091 85.356-37.456 131.946-47.042 134.782zM621.985 495.067c-73.159-86.511-240.953-253.732-240.953-253.732s112.055 152.699 195.672 250.829c83.608 98.13 251.98 282.766 251.98 282.766s-133.54-193.352-206.699-279.863z" />
<glyph unicode="&#xe94a;" glyph-name="FTC" d="M513.032 957.955c-282.211 0-510.982-228.775-510.982-510.973 0-282.211 228.771-510.982 510.982-510.982 282.198 0 510.968 228.771 510.968 510.982 0 282.198-228.771 510.973-510.968 510.973zM830.287 699.599c-4.019-56.222-82.43-143.235-111.098-176.893-28.691-33.658-53.169-69.606-61.013-70.378-7.839-0.759-60.254 4.412-69.606-18.545-4.208-10.327 56.416-7.843 56.416-7.843s-98.107-138.444-104.226-139.41c-6.123-0.953-74.442 3.734-117.081-4.872-42.648-8.602-58.665-32.416-58.665-32.416s60.62-5.351 102.885-7.265c42.256-1.906 107.274-2.678 107.274-2.678s-46.654-25.246-120.856-21.223c-74.202 4.019-103.842 9.939-103.842 9.939s10.327-26.957 30.791-39.966c20.464-13.004 55.075-23.322 54.312-25.241-0.768-1.91-44.938 1.147-73.819 15.109-28.881 13.957-34.042 36.137-38.056 32.502-4.014-3.63 7.455-31.36 17.398-40.725 9.948-9.374 35.193-26.781 31.947-27.924-3.256-1.151-60.241 21.028-70.951 34.037-5.071-10.81-58.999-67.51-61.148-61.532s40.16 50.343 43.028 63.252c2.872 12.901-0.713 32.556-10.327 31.978-9.6-0.564-26.388-35.279-26.388-35.279s-6.313 13.628-3.725 28.113c2.578 14.486 12.77 25.106 12.77 25.106s-20.229 21.656-29.689 31.116c-9.473 9.469-31.265 25.968-28.691 31.554 2.587 5.595 34.277-12.332 45.177-20.076 10.905-7.744 34.855-31.13 34.855-31.13s-9.18 29.116-16.061 48.771c-6.886 19.647-18.215 41.736-15.632 43.746s23.232-25.246 32.123-38.869 22.952-39.727 22.952-39.727-2.298 36.575 0.713 60.67c3.012 24.099 13.194 48.338 18.071 46.613 4.877-1.72 5.595-21.367 16.057-46.184 10.476-24.812 17.646-36.146 22.379-33.13 4.737 3.012 9.13 34.805 6.263 81.079s-6.687 81.653-6.687 81.653 28.253 29.743 30.403 28.307c2.149-1.431 0.718-48.338 2.723-68.12 2.009-19.8 7.893-39.307 10.616-39.018 2.723 0.284 15.343 21.078 23.571 70.802 8.218 49.724 12.043 74.771 12.043 74.771s53.738 50.063 55.748 49.485c2.005-0.564 4.159-27.824 7.46-37.578 3.296-9.753 9.324-14.341 9.324-14.341s12.472 13.054 16.061 43.028c3.585 29.974 3.865 41.881 6.877 48.478s82.759 69.845 125.502 102.261c42.739 32.416 134.524 88.634 140.841 86.773 6.313-1.869 34.999-32.561 30.985-88.783zM426.593 315.027s110.534 110.15 158.723 167.139c48.193 56.985 136.159 184.348 136.159 184.348s-110.913-121.624-165.988-186.262c-55.075-64.63-128.893-165.225-128.893-165.225z" />
<glyph unicode="&#xe94b;" glyph-name="GAME-alt" d="M510.863 614.433c78.892 0 145.040-55.421 161.668-129.366h55.721c-17.391 104.301-108.228 184.073-217.388 184.073-121.554 0-220.443-98.884-220.443-220.443 0-121.544 98.889-220.437 220.443-220.437 66.955 0 126.992 30.043 167.456 77.325v-78.735h54.707v193.565h-193.571v-54.707h114.777c-28.719-49.418-82.212-82.75-143.368-82.75-91.389 0-165.736 74.357-165.736 165.739-0.002 91.389 74.345 165.736 165.734 165.736zM512 959.8c-282.658 0-511.8-229.143-511.8-511.8 0-282.656 229.143-511.799 511.8-511.799s511.799 229.143 511.799 511.799c0 282.66-229.141 511.8-511.799 511.8zM808.421 151.288h-296.7c-163.866 0-296.7 132.844-296.7 296.707 0 163.871 132.835 296.705 296.7 296.705s296.7-132.834 296.7-296.705v-296.707z" />
<glyph unicode="&#xe94c;" glyph-name="GAME" d="M513.572 956.857c-281.899 0-510.426-228.525-510.426-510.431s228.525-510.428 510.426-510.428h510.428v510.428c0 281.906-228.527 510.431-510.428 510.431zM894.287 65.985h-94.112v135.443c-69.606-81.326-172.892-133.025-288.083-133.025-209.109 0-379.23 170.124-379.23 379.233s170.121 379.233 379.23 379.233c187.794 0 344.059-137.237 373.98-316.67h-95.858c-28.607 127.214-142.405 222.558-278.123 222.558-157.214 0-285.118-127.904-285.118-285.121 0-157.214 127.904-285.121 285.118-285.121 105.216 0 197.236 57.334 246.644 142.35h-197.444v94.112h332.998v-332.993z" />
<glyph unicode="&#xe94d;" glyph-name="GDC-alt" d="M445.341 565.72c-23.927 0-43.389-19.471-43.389-43.384 0-23.932 19.466-43.398 43.389-43.398s43.384 19.466 43.384 43.398c0.005 23.918-19.462 43.384-43.384 43.384zM578.664 611.475c23.927 0 43.389 19.462 43.389 43.389 0 23.923-19.466 43.393-43.389 43.393s-43.389-19.471-43.389-43.393c0-23.927 19.462-43.389 43.389-43.389zM578.664 330.275c23.927 0 43.389 19.466 43.389 43.393s-19.466 43.389-43.389 43.389-43.389-19.466-43.389-43.389c0-23.927 19.462-43.393 43.389-43.393zM512.002 960c-282.766 0-512.002-229.236-512.002-512.002s229.236-511.998 512.002-511.998c282.771 0 511.998 229.236 511.998 511.998 0 282.766-229.231 512.002-511.998 512.002zM282.039 673.802h217.681c8.566 35.686 40.666 62.322 78.944 62.322 44.802 0 81.251-36.453 81.251-81.26s-36.449-81.256-81.251-81.256c-38.277 0-70.373 26.637-78.944 62.322h-179.814v-243.324h179.814c8.566 35.681 40.666 62.322 78.944 62.322 44.802 0 81.251-36.453 81.251-81.256 0-44.807-36.449-81.26-81.251-81.26-38.277 0-70.373 26.637-78.944 62.327h-217.681v319.062zM741.97 222.203h-217.685c-8.57-35.686-40.666-62.327-78.944-62.327-44.807 0-81.256 36.453-81.256 81.265 0 44.802 36.449 81.256 81.256 81.256 38.277 0 70.369-26.632 78.944-62.322h179.814v243.324h-179.814c-8.57-35.69-40.666-62.327-78.944-62.327-44.807 0-81.256 36.453-81.256 81.265 0 44.802 36.449 81.251 81.256 81.251 38.277 0 70.369-26.628 78.944-62.322h217.685v-319.062zM445.341 284.525c-23.927 0-43.389-19.466-43.389-43.384 0-23.936 19.466-43.398 43.389-43.398s43.384 19.466 43.384 43.398c0.005 23.923-19.462 43.384-43.384 43.384z" />
<glyph unicode="&#xe94e;" glyph-name="GDC" d="M630.452 171.508c79.63 0 144.404 64.774 144.404 144.4s-64.779 144.4-144.404 144.4c-68.016 0-125.060-47.34-140.277-110.75h-319.545v432.395h319.545c15.217-63.41 72.261-110.746 140.277-110.746 79.63 0 144.404 64.779 144.404 144.4s-64.774 144.395-144.404 144.395c-68.016 0-125.060-47.331-140.277-110.746h-386.839v-567h386.834c15.222-63.41 72.265-110.746 140.281-110.746zM630.452 393.013c42.526 0 77.115-34.588 77.115-77.106 0-42.522-34.588-77.11-77.115-77.11-42.508 0-77.106 34.588-77.106 77.11 0 42.517 34.597 77.106 77.106 77.106zM630.452 892.711c42.526 0 77.115-34.597 77.115-77.11 0-42.522-34.588-77.106-77.115-77.106-42.508 0-77.106 34.588-77.106 77.106s34.597 77.11 77.106 77.11zM920.655 613.728h-386.839c-15.222 63.429-72.261 110.75-140.281 110.75-79.621 0-144.4-64.77-144.4-144.391 0-79.63 64.779-144.404 144.4-144.404 68.021 0 125.060 47.335 140.281 110.759h319.549v-432.408h-319.549c-15.222 63.424-72.261 110.75-140.281 110.75-79.621 0-144.4-64.779-144.4-144.4 0-79.63 64.779-144.404 144.4-144.404 68.021 0 125.060 47.335 140.281 110.759h386.839v566.987zM393.535 502.973c-42.522 0-77.106 34.584-77.106 77.115 0 42.508 34.588 77.106 77.106 77.106s77.11-34.597 77.11-77.106c0-42.531-34.593-77.115-77.11-77.115zM393.535 3.271c-42.522 0-77.106 34.588-77.106 77.115 0 42.517 34.588 77.101 77.106 77.101s77.11-34.584 77.11-77.101c0-42.526-34.593-77.115-77.11-77.115z" />
<glyph unicode="&#xe94f;" glyph-name="GEMZ-alt" d="M277.041 478.482h465.841l-231.105 339.508zM510.715 23.663l234.722 423.183h-471.706zM492.649 845.94h-194.449c0-0.492 0.059-0.966 0.014-1.463l-30.005-323.153 224.44 324.616zM531.008 845.94l220.544-323.979-29.12 322.552c-0.041 0.483 0.023 0.944 0.023 1.422h-191.446zM782.983 448.671l-230.459-415.792 461.556 465.272zM232.785 481.918l33.803 364.022h-19.71l-247.311-313.237zM9.067 498.259l460.273-465.213-232.826 415.683zM786.93 481.864l237.093 50.763-251.24 313.313h-18.721z" />
<glyph unicode="&#xe950;" glyph-name="GEMZ" d="M511.912 960c-282.721 0-511.912-229.191-511.912-511.912 0-282.717 229.191-511.912 511.912-511.912 282.717 0 511.912 229.195 511.912 511.912 0 282.721-229.195 511.912-511.912 511.912zM636.15 635.569c0-0.275-0.036-0.537-0.014-0.817l16.712-185.124-126.577 185.942h109.879zM515.226 619.526l132.641-194.855h-267.36l134.718 194.855zM392.659 635.569h111.595l-128.812-186.307 17.217 185.468c0.027 0.284 0 0.555 0 0.84zM363.196 635.569h11.311l-19.394-208.93-133.856 29.152 141.939 179.778zM226.707 436.018l130.542-28.425 133.626-238.578-264.167 267.003zM378.607 406.514h270.737l-134.723-242.886-136.014 242.886zM538.616 168.925l132.271 238.637 132.637 28.398-264.908-267.035zM673.154 426.613l-18.866 208.957h10.747l144.192-179.828-136.073-29.129z" />
<glyph unicode="&#xe951;" glyph-name="GLD-alt" d="M512 960c-282.638 0-512-229.362-512-512s229.362-512 512-512 512 229.362 512 512c0 282.638-229.362 512-512 512zM784.254 387.951c0-40.183-54.18-217.171-260.515-217.171-120.099 0-222.138 75.852-261.418 181.954h-56.889c-9.030 0-16.705 7.675-16.705 16.705v13.996c0 9.030 7.675 16.705 16.705 16.705h44.247c-3.16 18.060-4.515 36.571-4.063 55.534 0.451 9.933 0.903 20.317 2.257 29.799h-42.441c-9.030 0-16.705 7.675-16.705 16.705v13.996c0 9.030 7.675 16.705 16.705 16.705h52.825c35.668 111.069 139.513 192.339 260.966 194.145 88.042 1.354 167.055-38.377 218.977-101.136 3.612-4.515 3.612-11.287-0.451-15.351l-45.601-48.31c-6.321-6.772-17.608-6.321-23.478 1.354-33.862 42.892-86.236 70.434-145.383 70.434-71.788 0-134.095-41.086-164.797-100.684h44.698c9.030 0 16.705-7.675 16.705-16.705v-13.996c0-9.030-7.675-16.705-16.705-16.705h-60.952c-2.709-13.996-4.063-28.896-3.612-43.795 0.451-14.448 2.709-28.444 6.321-41.538h58.243c9.030 0 16.705-7.675 16.705-16.705v-13.996c0-9.030-7.675-16.705-16.705-16.705h-37.474c31.605-51.019 87.139-86.236 150.349-88.494 77.206-3.16 139.965 41.538 167.506 107.005h-105.199c-9.030 0-16.705 7.675-16.705 16.705v58.695c0 9.030 7.675 16.705 16.705 16.705h189.178c9.030 0 16.705-7.675 16.705-16.705v-59.146z" />
<glyph unicode="&#xe952;" glyph-name="GLD" d="M995.104 472.381h-323.725c-15.802 0-28.896-13.093-28.896-28.896v-101.136c0-15.802 13.093-28.896 28.896-28.896h180.6c-47.859-111.972-155.316-188.727-288.508-183.76-108.811 4.063-204.529 64.113-258.709 152.155h64.564c15.802 0 28.896 13.093 28.896 28.896v24.381c0 15.802-13.093 28.896-28.896 28.896h-100.233c-6.321 23.026-10.384 46.956-11.287 71.788-0.903 26.187 1.354 51.019 6.321 75.4h105.651c15.802 0 28.896 13.093 28.896 28.896v24.381c0 15.802-13.093 28.896-28.896 28.896h-77.206c52.825 102.942 159.831 173.376 283.541 173.376 101.136 0 191.436-47.407 249.679-121.002 9.933-12.642 29.347-13.996 40.183-1.806l78.109 83.527c6.772 7.224 7.224 18.511 0.903 26.187-89.397 107.908-224.847 176.085-376.55 173.827-209.044-3.612-387.386-143.577-448.79-334.561h-90.751c-15.802 0-28.896-13.093-28.896-28.896v-23.929c0-15.802 13.093-28.896 28.896-28.896h72.691c-2.257-17.157-3.612-34.314-4.063-51.471-0.903-32.508 1.806-64.564 7.224-95.718h-75.852c-15.802 0-28.896-13.093-28.896-28.896v-24.381c0-15.802 13.093-28.896 28.896-28.896h97.975c67.725-182.857 243.358-312.889 449.242-312.889 354.878 0 447.887 304.31 447.887 373.39v101.136c0 15.802-13.093 28.896-28.896 28.896z" />
<glyph unicode="&#xe953;" glyph-name="GNO-alt" d="M623.484 558.477c-28.49 28.49-67.192 44.838-107.506 44.838h-0.271c-40.048 0-77.405-15.003-105.895-42.689l107.506-107.773 106.166 105.624zM516.515 960c-282.638 0-512-229.362-512-512s229.362-512 512-512 512 229.362 512 512-229.362 512-512 512zM393.96 565.25c31.713 33.596 74.985 51.611 121.48 51.611h0.271c47.033 0 92.187-19.36 123.629-54.297l4.836-4.976-126.858-126.117-128.465 128.704 5.106 5.075zM623.484 491.33c0-17.469-14.245-31.713-31.713-31.713-6.718 0-12.633 1.883-17.739 5.373l44.075 44.075c3.495-5.102 5.377-11.283 5.377-17.735zM463.030 462.303c-5.377-4.298-12.096-6.718-19.351-6.718-17.469 0-31.713 14.245-31.713 31.713 0 7.256 2.42 13.974 6.452 19.351l44.613-44.346zM360.63 349.695c-63.964 4.032-152.119 19.889-209.098 71.224-35.208 31.447-41.926 60.162-42.197 61.503l-1.878 8.019h232.748l-1.345-7.481c-1.075-7.793-1.612-15.297-1.612-23.094 0-35.479 10.213-69.599 29.831-98.896l8.601-12.493-15.048 1.219zM516.786 296.296h-0.271c-85.735 0-155.614 70.506-155.347 156.241 0 28.756 8.064 56.889 22.846 81.076l2.686 4.659 14.245-14.2c-2.686-4.032-5.106-8.308-6.718-13.148-11.287-30.91 4.836-65.029 36.016-76.317 18.543-6.452 38.165-3.49 53.485 6.723l33.059-33.325 37.894 37.899c3.495-2.42 7.526-4.298 11.825-5.91 30.372-10.75 63.697 5.106 74.448 35.208 6.452 17.739 3.495 36.282-5.915 51.065l11.825 11.825 2.957-4.836c14.782-24.458 22.575-52.771 22.575-81.256-0.266-85.735-69.874-155.704-155.609-155.704zM881.764 420.915c-56.979-51.335-145.401-67.192-209.369-71.224l-15.048-1.075 8.33 12.633c19.618 29.293 29.831 63.427 29.831 98.634 0 8.064-0.537 15.279-1.612 23.072l-1.070 7.486h232.748l-1.883-8.019c-0.266-1.345-6.985-30.061-41.926-61.508z" />
<glyph unicode="&#xe954;" glyph-name="GNO" d="M679.669 548.269l-14.8-14.8c11.775-18.502 15.473-41.714 7.4-63.914-13.455-37.678-55.169-57.526-93.185-44.066-5.382 2.018-10.43 4.375-14.8 7.4l-47.434-47.434-41.375 41.714c-19.175-12.782-43.732-16.484-66.944-8.411-39.023 14.127-59.205 56.853-45.078 95.537 2.018 6.055 5.048 11.436 8.411 16.484l-17.83 17.83-3.364-5.72c-18.502-30.278-28.593-65.26-28.593-101.258-0.339-107.312 87.126-195.111 194.438-195.111h0.339c107.312 0 194.438 87.126 194.777 194.438 0 35.659-9.757 70.646-28.259 101.258l-3.702 6.055zM393.73 508.912c-5.048-6.727-8.073-15.139-8.073-24.223 0-21.866 17.83-39.696 39.696-39.696 9.084 0 17.491 3.030 24.223 8.411l-55.846 55.507zM588.507 456.768c6.393-4.375 13.793-6.727 22.2-6.727 21.866 0 39.696 17.83 39.696 39.696 0 8.073-2.357 15.811-6.727 22.2l-55.169-55.169zM517.526 415.054l-160.801 161.474 6.393 6.727c39.696 42.048 93.858 65.598 152.051 65.598h0.339c58.871 0 115.385-25.23 154.742-68.962l6.055-6.727-158.779-158.11zM382.966 576.528l134.56-134.894 132.876 132.203c-35.659 35.659-84.101 56.18-134.56 56.18h-0.339c-50.121 0-96.883-18.841-132.538-53.489zM340.241 311.11l-18.837 1.345c-80.064 5.048-190.402 24.896-261.72 89.144-44.066 39.357-52.478 76.701-52.816 78.38l-2.352 11.441h291.321l-1.684-10.764c-1.345-9.757-2.018-19.848-2.018-29.605 0-44.405 12.782-87.464 37.339-124.131l10.768-15.811zM692.789 311.11l10.43 15.811c24.557 36.666 37.339 79.392 37.339 123.458 0 10.091-0.673 20.521-2.018 30.278l-1.345 10.764h291.321l-2.357-11.436c-0.339-1.684-8.746-39.023-52.478-78.38-71.319-64.253-181.99-84.101-262.055-89.144l-18.837-1.35z" />
<glyph unicode="&#xe955;" glyph-name="GNT-alt" d="M513.652 760.46c-64.023 0-116.108-53.408-116.108-119.056s52.085-119.056 116.108-119.056c64.023 0 116.108 53.408 116.108 119.056s-52.089 119.056-116.108 119.056zM512 960c-282.638 0-512-229.362-512-512s229.362-512 512-512 512 229.362 512 512-229.362 512-512 512zM665.266 641.404c0-79.103-58.6-144.475-133.86-153.469v-105.985c75.26-8.994 133.86-74.366 133.86-153.469 0-85.229-68.014-154.566-151.618-154.566-83.6 0-151.618 69.337-151.618 154.566 0 79.103 58.6 144.475 133.86 153.469v105.985c-75.26 8.994-133.86 74.366-133.86 153.469 0 85.229 68.014 154.566 151.618 154.566 34.856 0 66.98-12.087 92.621-32.318l85.085 85.085 25.108-25.112-85.031-85.031c21.084-26.328 33.836-60.124 33.836-96.899 0-0.102 0-0.204 0-0.307v0.016zM397.545 228.481c0-65.648 52.085-119.056 116.108-119.056s116.108 53.408 116.108 119.056-52.085 119.056-116.108 119.056c-64.023-0.005-116.108-53.412-116.108-119.056z" />
<glyph unicode="&#xe956;" glyph-name="GNT" d="M723.694 685.994c0 48.631-16.782 93.325-44.716 128.442l112.378 112.378-33.185 33.185-112.446-112.446c-33.885 26.742-76.339 42.712-122.406 42.712-110.486 0-200.375-91.636-200.375-204.272 0-104.54 77.446-190.934 176.911-202.827v-140.073c-99.465-11.888-176.911-98.287-176.911-202.827 0-112.635 89.889-204.272 200.375-204.272s200.375 91.636 200.375 204.272c0 104.54-77.446 190.934-176.911 202.827v140.073c99.465 11.888 176.911 98.287 176.911 202.827zM369.873 685.994c0 86.76 68.836 157.343 153.446 157.343s153.446-70.583 153.446-157.343-68.836-157.343-153.446-157.343-153.446 70.583-153.446 157.343zM676.766 140.272c0-86.76-68.836-157.343-153.446-157.343s-153.446 70.583-153.446 157.343 68.836 157.343 153.446 157.343 153.446-70.583 153.446-157.343z" />
</font>
</defs>
</svg>
